<?xml version="1.0" encoding="utf-8" standalone="no"?>
<!DOCTYPE svg PUBLIC "-//W3C//DTD SVG 1.1//EN"
  "http://www.w3.org/Graphics/SVG/1.1/DTD/svg11.dtd">
<svg xmlns:xlink="http://www.w3.org/1999/xlink" width="432pt" height="288pt" viewBox="0 0 432 288" xmlns="http://www.w3.org/2000/svg" version="1.1">
 <metadata>
  <rdf:RDF xmlns:dc="http://purl.org/dc/elements/1.1/" xmlns:cc="http://creativecommons.org/ns#" xmlns:rdf="http://www.w3.org/1999/02/22-rdf-syntax-ns#">
   <cc:Work>
    <dc:type rdf:resource="http://purl.org/dc/dcmitype/StillImage"/>
    <dc:date>2023-05-03T23:23:15.466646</dc:date>
    <dc:format>image/svg+xml</dc:format>
    <dc:creator>
     <cc:Agent>
      <dc:title>Matplotlib v3.7.1, https://matplotlib.org/</dc:title>
     </cc:Agent>
    </dc:creator>
   </cc:Work>
  </rdf:RDF>
 </metadata>
 <defs>
  <style type="text/css">*{stroke-linejoin: round; stroke-linecap: butt}</style>
 </defs>
 <g id="figure_1">
  <g id="patch_1">
   <path d="M 0 288 
L 432 288 
L 432 0 
L 0 0 
L 0 288 
z
" style="fill: none"/>
  </g>
  <g id="axes_1">
   <g id="patch_2">
    <path d="M 54 252 
L 388.8 252 
L 388.8 34.56 
L 54 34.56 
z
" style="fill: #ffffff"/>
   </g>
   <g id="matplotlib.axis_1">
    <g id="xtick_1">
     <g id="line2d_1">
      <defs>
       <path id="m461f81f8f8" d="M 0 0 
L 0 3.5 
" style="stroke: #000000; stroke-width: 0.8"/>
      </defs>
      <g>
       <use xlink:href="#m461f81f8f8" x="56.602073" y="252" style="stroke: #000000; stroke-width: 0.8"/>
      </g>
     </g>
    </g>
    <g id="xtick_2">
     <g id="line2d_2">
      <g>
       <use xlink:href="#m461f81f8f8" x="69.218182" y="252" style="stroke: #000000; stroke-width: 0.8"/>
      </g>
     </g>
     <g id="text_1">
      <!-- w1 (2000) -->
      <g transform="translate(65.287287 310.201671) rotate(-75) scale(0.1 -0.1)">
       <defs>
        <path id="DejaVuSans-77" d="M 269 3500 
L 844 3500 
L 1563 769 
L 2278 3500 
L 2956 3500 
L 3675 769 
L 4391 3500 
L 4966 3500 
L 4050 0 
L 3372 0 
L 2619 2869 
L 1863 0 
L 1184 0 
L 269 3500 
z
" transform="scale(0.015625)"/>
        <path id="DejaVuSans-31" d="M 794 531 
L 1825 531 
L 1825 4091 
L 703 3866 
L 703 4441 
L 1819 4666 
L 2450 4666 
L 2450 531 
L 3481 531 
L 3481 0 
L 794 0 
L 794 531 
z
" transform="scale(0.015625)"/>
        <path id="DejaVuSans-20" transform="scale(0.015625)"/>
        <path id="DejaVuSans-28" d="M 1984 4856 
Q 1566 4138 1362 3434 
Q 1159 2731 1159 2009 
Q 1159 1288 1364 580 
Q 1569 -128 1984 -844 
L 1484 -844 
Q 1016 -109 783 600 
Q 550 1309 550 2009 
Q 550 2706 781 3412 
Q 1013 4119 1484 4856 
L 1984 4856 
z
" transform="scale(0.015625)"/>
        <path id="DejaVuSans-32" d="M 1228 531 
L 3431 531 
L 3431 0 
L 469 0 
L 469 531 
Q 828 903 1448 1529 
Q 2069 2156 2228 2338 
Q 2531 2678 2651 2914 
Q 2772 3150 2772 3378 
Q 2772 3750 2511 3984 
Q 2250 4219 1831 4219 
Q 1534 4219 1204 4116 
Q 875 4013 500 3803 
L 500 4441 
Q 881 4594 1212 4672 
Q 1544 4750 1819 4750 
Q 2544 4750 2975 4387 
Q 3406 4025 3406 3419 
Q 3406 3131 3298 2873 
Q 3191 2616 2906 2266 
Q 2828 2175 2409 1742 
Q 1991 1309 1228 531 
z
" transform="scale(0.015625)"/>
        <path id="DejaVuSans-30" d="M 2034 4250 
Q 1547 4250 1301 3770 
Q 1056 3291 1056 2328 
Q 1056 1369 1301 889 
Q 1547 409 2034 409 
Q 2525 409 2770 889 
Q 3016 1369 3016 2328 
Q 3016 3291 2770 3770 
Q 2525 4250 2034 4250 
z
M 2034 4750 
Q 2819 4750 3233 4129 
Q 3647 3509 3647 2328 
Q 3647 1150 3233 529 
Q 2819 -91 2034 -91 
Q 1250 -91 836 529 
Q 422 1150 422 2328 
Q 422 3509 836 4129 
Q 1250 4750 2034 4750 
z
" transform="scale(0.015625)"/>
        <path id="DejaVuSans-29" d="M 513 4856 
L 1013 4856 
Q 1481 4119 1714 3412 
Q 1947 2706 1947 2009 
Q 1947 1309 1714 600 
Q 1481 -109 1013 -844 
L 513 -844 
Q 928 -128 1133 580 
Q 1338 1288 1338 2009 
Q 1338 2731 1133 3434 
Q 928 4138 513 4856 
z
" transform="scale(0.015625)"/>
       </defs>
       <use xlink:href="#DejaVuSans-77"/>
       <use xlink:href="#DejaVuSans-31" x="81.787109"/>
       <use xlink:href="#DejaVuSans-20" x="145.410156"/>
       <use xlink:href="#DejaVuSans-28" x="177.197266"/>
       <use xlink:href="#DejaVuSans-32" x="216.210938"/>
       <use xlink:href="#DejaVuSans-30" x="279.833984"/>
       <use xlink:href="#DejaVuSans-30" x="343.457031"/>
       <use xlink:href="#DejaVuSans-30" x="407.080078"/>
       <use xlink:href="#DejaVuSans-29" x="470.703125"/>
      </g>
     </g>
    </g>
    <g id="xtick_3">
     <g id="line2d_3">
      <g>
       <use xlink:href="#m461f81f8f8" x="81.834291" y="252" style="stroke: #000000; stroke-width: 0.8"/>
      </g>
     </g>
     <g id="text_2">
      <!-- w18 (2000) -->
      <g transform="translate(77.080029 316.347374) rotate(-75) scale(0.1 -0.1)">
       <defs>
        <path id="DejaVuSans-38" d="M 2034 2216 
Q 1584 2216 1326 1975 
Q 1069 1734 1069 1313 
Q 1069 891 1326 650 
Q 1584 409 2034 409 
Q 2484 409 2743 651 
Q 3003 894 3003 1313 
Q 3003 1734 2745 1975 
Q 2488 2216 2034 2216 
z
M 1403 2484 
Q 997 2584 770 2862 
Q 544 3141 544 3541 
Q 544 4100 942 4425 
Q 1341 4750 2034 4750 
Q 2731 4750 3128 4425 
Q 3525 4100 3525 3541 
Q 3525 3141 3298 2862 
Q 3072 2584 2669 2484 
Q 3125 2378 3379 2068 
Q 3634 1759 3634 1313 
Q 3634 634 3220 271 
Q 2806 -91 2034 -91 
Q 1263 -91 848 271 
Q 434 634 434 1313 
Q 434 1759 690 2068 
Q 947 2378 1403 2484 
z
M 1172 3481 
Q 1172 3119 1398 2916 
Q 1625 2713 2034 2713 
Q 2441 2713 2670 2916 
Q 2900 3119 2900 3481 
Q 2900 3844 2670 4047 
Q 2441 4250 2034 4250 
Q 1625 4250 1398 4047 
Q 1172 3844 1172 3481 
z
" transform="scale(0.015625)"/>
       </defs>
       <use xlink:href="#DejaVuSans-77"/>
       <use xlink:href="#DejaVuSans-31" x="81.787109"/>
       <use xlink:href="#DejaVuSans-38" x="145.410156"/>
       <use xlink:href="#DejaVuSans-20" x="209.033203"/>
       <use xlink:href="#DejaVuSans-28" x="240.820312"/>
       <use xlink:href="#DejaVuSans-32" x="279.833984"/>
       <use xlink:href="#DejaVuSans-30" x="343.457031"/>
       <use xlink:href="#DejaVuSans-30" x="407.080078"/>
       <use xlink:href="#DejaVuSans-30" x="470.703125"/>
       <use xlink:href="#DejaVuSans-29" x="534.326172"/>
      </g>
     </g>
    </g>
    <g id="xtick_4">
     <g id="line2d_4">
      <g>
       <use xlink:href="#m461f81f8f8" x="94.4504" y="252" style="stroke: #000000; stroke-width: 0.8"/>
      </g>
     </g>
     <g id="text_3">
      <!-- w17 (2001) -->
      <g transform="translate(89.696138 316.347374) rotate(-75) scale(0.1 -0.1)">
       <defs>
        <path id="DejaVuSans-37" d="M 525 4666 
L 3525 4666 
L 3525 4397 
L 1831 0 
L 1172 0 
L 2766 4134 
L 525 4134 
L 525 4666 
z
" transform="scale(0.015625)"/>
       </defs>
       <use xlink:href="#DejaVuSans-77"/>
       <use xlink:href="#DejaVuSans-31" x="81.787109"/>
       <use xlink:href="#DejaVuSans-37" x="145.410156"/>
       <use xlink:href="#DejaVuSans-20" x="209.033203"/>
       <use xlink:href="#DejaVuSans-28" x="240.820312"/>
       <use xlink:href="#DejaVuSans-32" x="279.833984"/>
       <use xlink:href="#DejaVuSans-30" x="343.457031"/>
       <use xlink:href="#DejaVuSans-30" x="407.080078"/>
       <use xlink:href="#DejaVuSans-31" x="470.703125"/>
       <use xlink:href="#DejaVuSans-29" x="534.326172"/>
      </g>
     </g>
    </g>
    <g id="xtick_5">
     <g id="line2d_5">
      <g>
       <use xlink:href="#m461f81f8f8" x="107.06651" y="252" style="stroke: #000000; stroke-width: 0.8"/>
      </g>
     </g>
     <g id="text_4">
      <!-- w14 (2002) -->
      <g transform="translate(102.312247 316.347374) rotate(-75) scale(0.1 -0.1)">
       <defs>
        <path id="DejaVuSans-34" d="M 2419 4116 
L 825 1625 
L 2419 1625 
L 2419 4116 
z
M 2253 4666 
L 3047 4666 
L 3047 1625 
L 3713 1625 
L 3713 1100 
L 3047 1100 
L 3047 0 
L 2419 0 
L 2419 1100 
L 313 1100 
L 313 1709 
L 2253 4666 
z
" transform="scale(0.015625)"/>
       </defs>
       <use xlink:href="#DejaVuSans-77"/>
       <use xlink:href="#DejaVuSans-31" x="81.787109"/>
       <use xlink:href="#DejaVuSans-34" x="145.410156"/>
       <use xlink:href="#DejaVuSans-20" x="209.033203"/>
       <use xlink:href="#DejaVuSans-28" x="240.820312"/>
       <use xlink:href="#DejaVuSans-32" x="279.833984"/>
       <use xlink:href="#DejaVuSans-30" x="343.457031"/>
       <use xlink:href="#DejaVuSans-30" x="407.080078"/>
       <use xlink:href="#DejaVuSans-32" x="470.703125"/>
       <use xlink:href="#DejaVuSans-29" x="534.326172"/>
      </g>
     </g>
    </g>
    <g id="xtick_6">
     <g id="line2d_6">
      <g>
       <use xlink:href="#m461f81f8f8" x="119.682619" y="252" style="stroke: #000000; stroke-width: 0.8"/>
      </g>
     </g>
     <g id="text_5">
      <!-- w14 (2003) -->
      <g transform="translate(114.928356 316.347374) rotate(-75) scale(0.1 -0.1)">
       <defs>
        <path id="DejaVuSans-33" d="M 2597 2516 
Q 3050 2419 3304 2112 
Q 3559 1806 3559 1356 
Q 3559 666 3084 287 
Q 2609 -91 1734 -91 
Q 1441 -91 1130 -33 
Q 819 25 488 141 
L 488 750 
Q 750 597 1062 519 
Q 1375 441 1716 441 
Q 2309 441 2620 675 
Q 2931 909 2931 1356 
Q 2931 1769 2642 2001 
Q 2353 2234 1838 2234 
L 1294 2234 
L 1294 2753 
L 1863 2753 
Q 2328 2753 2575 2939 
Q 2822 3125 2822 3475 
Q 2822 3834 2567 4026 
Q 2313 4219 1838 4219 
Q 1578 4219 1281 4162 
Q 984 4106 628 3988 
L 628 4550 
Q 988 4650 1302 4700 
Q 1616 4750 1894 4750 
Q 2613 4750 3031 4423 
Q 3450 4097 3450 3541 
Q 3450 3153 3228 2886 
Q 3006 2619 2597 2516 
z
" transform="scale(0.015625)"/>
       </defs>
       <use xlink:href="#DejaVuSans-77"/>
       <use xlink:href="#DejaVuSans-31" x="81.787109"/>
       <use xlink:href="#DejaVuSans-34" x="145.410156"/>
       <use xlink:href="#DejaVuSans-20" x="209.033203"/>
       <use xlink:href="#DejaVuSans-28" x="240.820312"/>
       <use xlink:href="#DejaVuSans-32" x="279.833984"/>
       <use xlink:href="#DejaVuSans-30" x="343.457031"/>
       <use xlink:href="#DejaVuSans-30" x="407.080078"/>
       <use xlink:href="#DejaVuSans-33" x="470.703125"/>
       <use xlink:href="#DejaVuSans-29" x="534.326172"/>
      </g>
     </g>
    </g>
    <g id="xtick_7">
     <g id="line2d_7">
      <g>
       <use xlink:href="#m461f81f8f8" x="132.298728" y="252" style="stroke: #000000; stroke-width: 0.8"/>
      </g>
     </g>
     <g id="text_6">
      <!-- w13 (2004) -->
      <g transform="translate(127.544466 316.347374) rotate(-75) scale(0.1 -0.1)">
       <use xlink:href="#DejaVuSans-77"/>
       <use xlink:href="#DejaVuSans-31" x="81.787109"/>
       <use xlink:href="#DejaVuSans-33" x="145.410156"/>
       <use xlink:href="#DejaVuSans-20" x="209.033203"/>
       <use xlink:href="#DejaVuSans-28" x="240.820312"/>
       <use xlink:href="#DejaVuSans-32" x="279.833984"/>
       <use xlink:href="#DejaVuSans-30" x="343.457031"/>
       <use xlink:href="#DejaVuSans-30" x="407.080078"/>
       <use xlink:href="#DejaVuSans-34" x="470.703125"/>
       <use xlink:href="#DejaVuSans-29" x="534.326172"/>
      </g>
     </g>
    </g>
    <g id="xtick_8">
     <g id="line2d_8">
      <g>
       <use xlink:href="#m461f81f8f8" x="144.914837" y="252" style="stroke: #000000; stroke-width: 0.8"/>
      </g>
     </g>
     <g id="text_7">
      <!-- w11 (2005) -->
      <g transform="translate(140.160575 316.347374) rotate(-75) scale(0.1 -0.1)">
       <defs>
        <path id="DejaVuSans-35" d="M 691 4666 
L 3169 4666 
L 3169 4134 
L 1269 4134 
L 1269 2991 
Q 1406 3038 1543 3061 
Q 1681 3084 1819 3084 
Q 2600 3084 3056 2656 
Q 3513 2228 3513 1497 
Q 3513 744 3044 326 
Q 2575 -91 1722 -91 
Q 1428 -91 1123 -41 
Q 819 9 494 109 
L 494 744 
Q 775 591 1075 516 
Q 1375 441 1709 441 
Q 2250 441 2565 725 
Q 2881 1009 2881 1497 
Q 2881 1984 2565 2268 
Q 2250 2553 1709 2553 
Q 1456 2553 1204 2497 
Q 953 2441 691 2322 
L 691 4666 
z
" transform="scale(0.015625)"/>
       </defs>
       <use xlink:href="#DejaVuSans-77"/>
       <use xlink:href="#DejaVuSans-31" x="81.787109"/>
       <use xlink:href="#DejaVuSans-31" x="145.410156"/>
       <use xlink:href="#DejaVuSans-20" x="209.033203"/>
       <use xlink:href="#DejaVuSans-28" x="240.820312"/>
       <use xlink:href="#DejaVuSans-32" x="279.833984"/>
       <use xlink:href="#DejaVuSans-30" x="343.457031"/>
       <use xlink:href="#DejaVuSans-30" x="407.080078"/>
       <use xlink:href="#DejaVuSans-35" x="470.703125"/>
       <use xlink:href="#DejaVuSans-29" x="534.326172"/>
      </g>
     </g>
    </g>
    <g id="xtick_9">
     <g id="line2d_9">
      <g>
       <use xlink:href="#m461f81f8f8" x="157.530947" y="252" style="stroke: #000000; stroke-width: 0.8"/>
      </g>
     </g>
     <g id="text_8">
      <!-- w11 (2006) -->
      <g transform="translate(152.776684 316.347374) rotate(-75) scale(0.1 -0.1)">
       <defs>
        <path id="DejaVuSans-36" d="M 2113 2584 
Q 1688 2584 1439 2293 
Q 1191 2003 1191 1497 
Q 1191 994 1439 701 
Q 1688 409 2113 409 
Q 2538 409 2786 701 
Q 3034 994 3034 1497 
Q 3034 2003 2786 2293 
Q 2538 2584 2113 2584 
z
M 3366 4563 
L 3366 3988 
Q 3128 4100 2886 4159 
Q 2644 4219 2406 4219 
Q 1781 4219 1451 3797 
Q 1122 3375 1075 2522 
Q 1259 2794 1537 2939 
Q 1816 3084 2150 3084 
Q 2853 3084 3261 2657 
Q 3669 2231 3669 1497 
Q 3669 778 3244 343 
Q 2819 -91 2113 -91 
Q 1303 -91 875 529 
Q 447 1150 447 2328 
Q 447 3434 972 4092 
Q 1497 4750 2381 4750 
Q 2619 4750 2861 4703 
Q 3103 4656 3366 4563 
z
" transform="scale(0.015625)"/>
       </defs>
       <use xlink:href="#DejaVuSans-77"/>
       <use xlink:href="#DejaVuSans-31" x="81.787109"/>
       <use xlink:href="#DejaVuSans-31" x="145.410156"/>
       <use xlink:href="#DejaVuSans-20" x="209.033203"/>
       <use xlink:href="#DejaVuSans-28" x="240.820312"/>
       <use xlink:href="#DejaVuSans-32" x="279.833984"/>
       <use xlink:href="#DejaVuSans-30" x="343.457031"/>
       <use xlink:href="#DejaVuSans-30" x="407.080078"/>
       <use xlink:href="#DejaVuSans-36" x="470.703125"/>
       <use xlink:href="#DejaVuSans-29" x="534.326172"/>
      </g>
     </g>
    </g>
    <g id="xtick_10">
     <g id="line2d_10">
      <g>
       <use xlink:href="#m461f81f8f8" x="170.147056" y="252" style="stroke: #000000; stroke-width: 0.8"/>
      </g>
     </g>
     <g id="text_9">
      <!-- w11 (2007) -->
      <g transform="translate(165.392794 316.347374) rotate(-75) scale(0.1 -0.1)">
       <use xlink:href="#DejaVuSans-77"/>
       <use xlink:href="#DejaVuSans-31" x="81.787109"/>
       <use xlink:href="#DejaVuSans-31" x="145.410156"/>
       <use xlink:href="#DejaVuSans-20" x="209.033203"/>
       <use xlink:href="#DejaVuSans-28" x="240.820312"/>
       <use xlink:href="#DejaVuSans-32" x="279.833984"/>
       <use xlink:href="#DejaVuSans-30" x="343.457031"/>
       <use xlink:href="#DejaVuSans-30" x="407.080078"/>
       <use xlink:href="#DejaVuSans-37" x="470.703125"/>
       <use xlink:href="#DejaVuSans-29" x="534.326172"/>
      </g>
     </g>
    </g>
    <g id="xtick_11">
     <g id="line2d_11">
      <g>
       <use xlink:href="#m461f81f8f8" x="182.763165" y="252" style="stroke: #000000; stroke-width: 0.8"/>
      </g>
     </g>
     <g id="text_10">
      <!-- w11 (2008) -->
      <g transform="translate(178.008903 316.347374) rotate(-75) scale(0.1 -0.1)">
       <use xlink:href="#DejaVuSans-77"/>
       <use xlink:href="#DejaVuSans-31" x="81.787109"/>
       <use xlink:href="#DejaVuSans-31" x="145.410156"/>
       <use xlink:href="#DejaVuSans-20" x="209.033203"/>
       <use xlink:href="#DejaVuSans-28" x="240.820312"/>
       <use xlink:href="#DejaVuSans-32" x="279.833984"/>
       <use xlink:href="#DejaVuSans-30" x="343.457031"/>
       <use xlink:href="#DejaVuSans-30" x="407.080078"/>
       <use xlink:href="#DejaVuSans-38" x="470.703125"/>
       <use xlink:href="#DejaVuSans-29" x="534.326172"/>
      </g>
     </g>
    </g>
    <g id="xtick_12">
     <g id="line2d_12">
      <g>
       <use xlink:href="#m461f81f8f8" x="195.379275" y="252" style="stroke: #000000; stroke-width: 0.8"/>
      </g>
     </g>
     <g id="text_11">
      <!-- w11 (2009) -->
      <g transform="translate(190.625012 316.347374) rotate(-75) scale(0.1 -0.1)">
       <defs>
        <path id="DejaVuSans-39" d="M 703 97 
L 703 672 
Q 941 559 1184 500 
Q 1428 441 1663 441 
Q 2288 441 2617 861 
Q 2947 1281 2994 2138 
Q 2813 1869 2534 1725 
Q 2256 1581 1919 1581 
Q 1219 1581 811 2004 
Q 403 2428 403 3163 
Q 403 3881 828 4315 
Q 1253 4750 1959 4750 
Q 2769 4750 3195 4129 
Q 3622 3509 3622 2328 
Q 3622 1225 3098 567 
Q 2575 -91 1691 -91 
Q 1453 -91 1209 -44 
Q 966 3 703 97 
z
M 1959 2075 
Q 2384 2075 2632 2365 
Q 2881 2656 2881 3163 
Q 2881 3666 2632 3958 
Q 2384 4250 1959 4250 
Q 1534 4250 1286 3958 
Q 1038 3666 1038 3163 
Q 1038 2656 1286 2365 
Q 1534 2075 1959 2075 
z
" transform="scale(0.015625)"/>
       </defs>
       <use xlink:href="#DejaVuSans-77"/>
       <use xlink:href="#DejaVuSans-31" x="81.787109"/>
       <use xlink:href="#DejaVuSans-31" x="145.410156"/>
       <use xlink:href="#DejaVuSans-20" x="209.033203"/>
       <use xlink:href="#DejaVuSans-28" x="240.820312"/>
       <use xlink:href="#DejaVuSans-32" x="279.833984"/>
       <use xlink:href="#DejaVuSans-30" x="343.457031"/>
       <use xlink:href="#DejaVuSans-30" x="407.080078"/>
       <use xlink:href="#DejaVuSans-39" x="470.703125"/>
       <use xlink:href="#DejaVuSans-29" x="534.326172"/>
      </g>
     </g>
    </g>
    <g id="xtick_13">
     <g id="line2d_13">
      <g>
       <use xlink:href="#m461f81f8f8" x="207.995384" y="252" style="stroke: #000000; stroke-width: 0.8"/>
      </g>
     </g>
     <g id="text_12">
      <!-- w11 (2010) -->
      <g transform="translate(203.241121 316.347374) rotate(-75) scale(0.1 -0.1)">
       <use xlink:href="#DejaVuSans-77"/>
       <use xlink:href="#DejaVuSans-31" x="81.787109"/>
       <use xlink:href="#DejaVuSans-31" x="145.410156"/>
       <use xlink:href="#DejaVuSans-20" x="209.033203"/>
       <use xlink:href="#DejaVuSans-28" x="240.820312"/>
       <use xlink:href="#DejaVuSans-32" x="279.833984"/>
       <use xlink:href="#DejaVuSans-30" x="343.457031"/>
       <use xlink:href="#DejaVuSans-31" x="407.080078"/>
       <use xlink:href="#DejaVuSans-30" x="470.703125"/>
       <use xlink:href="#DejaVuSans-29" x="534.326172"/>
      </g>
     </g>
    </g>
    <g id="xtick_14">
     <g id="line2d_14">
      <g>
       <use xlink:href="#m461f81f8f8" x="220.611493" y="252" style="stroke: #000000; stroke-width: 0.8"/>
      </g>
     </g>
     <g id="text_13">
      <!-- w11 (2011) -->
      <g transform="translate(215.857231 316.347374) rotate(-75) scale(0.1 -0.1)">
       <use xlink:href="#DejaVuSans-77"/>
       <use xlink:href="#DejaVuSans-31" x="81.787109"/>
       <use xlink:href="#DejaVuSans-31" x="145.410156"/>
       <use xlink:href="#DejaVuSans-20" x="209.033203"/>
       <use xlink:href="#DejaVuSans-28" x="240.820312"/>
       <use xlink:href="#DejaVuSans-32" x="279.833984"/>
       <use xlink:href="#DejaVuSans-30" x="343.457031"/>
       <use xlink:href="#DejaVuSans-31" x="407.080078"/>
       <use xlink:href="#DejaVuSans-31" x="470.703125"/>
       <use xlink:href="#DejaVuSans-29" x="534.326172"/>
      </g>
     </g>
    </g>
    <g id="xtick_15">
     <g id="line2d_15">
      <g>
       <use xlink:href="#m461f81f8f8" x="233.227602" y="252" style="stroke: #000000; stroke-width: 0.8"/>
      </g>
     </g>
     <g id="text_14">
      <!-- w11 (2012) -->
      <g transform="translate(228.47334 316.347374) rotate(-75) scale(0.1 -0.1)">
       <use xlink:href="#DejaVuSans-77"/>
       <use xlink:href="#DejaVuSans-31" x="81.787109"/>
       <use xlink:href="#DejaVuSans-31" x="145.410156"/>
       <use xlink:href="#DejaVuSans-20" x="209.033203"/>
       <use xlink:href="#DejaVuSans-28" x="240.820312"/>
       <use xlink:href="#DejaVuSans-32" x="279.833984"/>
       <use xlink:href="#DejaVuSans-30" x="343.457031"/>
       <use xlink:href="#DejaVuSans-31" x="407.080078"/>
       <use xlink:href="#DejaVuSans-32" x="470.703125"/>
       <use xlink:href="#DejaVuSans-29" x="534.326172"/>
      </g>
     </g>
    </g>
    <g id="xtick_16">
     <g id="line2d_16">
      <g>
       <use xlink:href="#m461f81f8f8" x="245.843712" y="252" style="stroke: #000000; stroke-width: 0.8"/>
      </g>
     </g>
     <g id="text_15">
      <!-- w10 (2013) -->
      <g transform="translate(241.089449 316.347374) rotate(-75) scale(0.1 -0.1)">
       <use xlink:href="#DejaVuSans-77"/>
       <use xlink:href="#DejaVuSans-31" x="81.787109"/>
       <use xlink:href="#DejaVuSans-30" x="145.410156"/>
       <use xlink:href="#DejaVuSans-20" x="209.033203"/>
       <use xlink:href="#DejaVuSans-28" x="240.820312"/>
       <use xlink:href="#DejaVuSans-32" x="279.833984"/>
       <use xlink:href="#DejaVuSans-30" x="343.457031"/>
       <use xlink:href="#DejaVuSans-31" x="407.080078"/>
       <use xlink:href="#DejaVuSans-33" x="470.703125"/>
       <use xlink:href="#DejaVuSans-29" x="534.326172"/>
      </g>
     </g>
    </g>
    <g id="xtick_17">
     <g id="line2d_17">
      <g>
       <use xlink:href="#m461f81f8f8" x="258.459821" y="252" style="stroke: #000000; stroke-width: 0.8"/>
      </g>
     </g>
     <g id="text_16">
      <!-- w11 (2014) -->
      <g transform="translate(253.705558 316.347374) rotate(-75) scale(0.1 -0.1)">
       <use xlink:href="#DejaVuSans-77"/>
       <use xlink:href="#DejaVuSans-31" x="81.787109"/>
       <use xlink:href="#DejaVuSans-31" x="145.410156"/>
       <use xlink:href="#DejaVuSans-20" x="209.033203"/>
       <use xlink:href="#DejaVuSans-28" x="240.820312"/>
       <use xlink:href="#DejaVuSans-32" x="279.833984"/>
       <use xlink:href="#DejaVuSans-30" x="343.457031"/>
       <use xlink:href="#DejaVuSans-31" x="407.080078"/>
       <use xlink:href="#DejaVuSans-34" x="470.703125"/>
       <use xlink:href="#DejaVuSans-29" x="534.326172"/>
      </g>
     </g>
    </g>
    <g id="xtick_18">
     <g id="line2d_18">
      <g>
       <use xlink:href="#m461f81f8f8" x="271.07593" y="252" style="stroke: #000000; stroke-width: 0.8"/>
      </g>
     </g>
     <g id="text_17">
      <!-- w11 (2015) -->
      <g transform="translate(266.321668 316.347374) rotate(-75) scale(0.1 -0.1)">
       <use xlink:href="#DejaVuSans-77"/>
       <use xlink:href="#DejaVuSans-31" x="81.787109"/>
       <use xlink:href="#DejaVuSans-31" x="145.410156"/>
       <use xlink:href="#DejaVuSans-20" x="209.033203"/>
       <use xlink:href="#DejaVuSans-28" x="240.820312"/>
       <use xlink:href="#DejaVuSans-32" x="279.833984"/>
       <use xlink:href="#DejaVuSans-30" x="343.457031"/>
       <use xlink:href="#DejaVuSans-31" x="407.080078"/>
       <use xlink:href="#DejaVuSans-35" x="470.703125"/>
       <use xlink:href="#DejaVuSans-29" x="534.326172"/>
      </g>
     </g>
    </g>
    <g id="xtick_19">
     <g id="line2d_19">
      <g>
       <use xlink:href="#m461f81f8f8" x="283.69204" y="252" style="stroke: #000000; stroke-width: 0.8"/>
      </g>
     </g>
     <g id="text_18">
      <!-- w11 (2016) -->
      <g transform="translate(278.937777 316.347374) rotate(-75) scale(0.1 -0.1)">
       <use xlink:href="#DejaVuSans-77"/>
       <use xlink:href="#DejaVuSans-31" x="81.787109"/>
       <use xlink:href="#DejaVuSans-31" x="145.410156"/>
       <use xlink:href="#DejaVuSans-20" x="209.033203"/>
       <use xlink:href="#DejaVuSans-28" x="240.820312"/>
       <use xlink:href="#DejaVuSans-32" x="279.833984"/>
       <use xlink:href="#DejaVuSans-30" x="343.457031"/>
       <use xlink:href="#DejaVuSans-31" x="407.080078"/>
       <use xlink:href="#DejaVuSans-36" x="470.703125"/>
       <use xlink:href="#DejaVuSans-29" x="534.326172"/>
      </g>
     </g>
    </g>
    <g id="xtick_20">
     <g id="line2d_20">
      <g>
       <use xlink:href="#m461f81f8f8" x="296.308149" y="252" style="stroke: #000000; stroke-width: 0.8"/>
      </g>
     </g>
     <g id="text_19">
      <!-- w11 (2017) -->
      <g transform="translate(291.553886 316.347374) rotate(-75) scale(0.1 -0.1)">
       <use xlink:href="#DejaVuSans-77"/>
       <use xlink:href="#DejaVuSans-31" x="81.787109"/>
       <use xlink:href="#DejaVuSans-31" x="145.410156"/>
       <use xlink:href="#DejaVuSans-20" x="209.033203"/>
       <use xlink:href="#DejaVuSans-28" x="240.820312"/>
       <use xlink:href="#DejaVuSans-32" x="279.833984"/>
       <use xlink:href="#DejaVuSans-30" x="343.457031"/>
       <use xlink:href="#DejaVuSans-31" x="407.080078"/>
       <use xlink:href="#DejaVuSans-37" x="470.703125"/>
       <use xlink:href="#DejaVuSans-29" x="534.326172"/>
      </g>
     </g>
    </g>
    <g id="xtick_21">
     <g id="line2d_21">
      <g>
       <use xlink:href="#m461f81f8f8" x="308.924258" y="252" style="stroke: #000000; stroke-width: 0.8"/>
      </g>
     </g>
     <g id="text_20">
      <!-- w9 (2018) -->
      <g transform="translate(304.993364 310.201671) rotate(-75) scale(0.1 -0.1)">
       <use xlink:href="#DejaVuSans-77"/>
       <use xlink:href="#DejaVuSans-39" x="81.787109"/>
       <use xlink:href="#DejaVuSans-20" x="145.410156"/>
       <use xlink:href="#DejaVuSans-28" x="177.197266"/>
       <use xlink:href="#DejaVuSans-32" x="216.210938"/>
       <use xlink:href="#DejaVuSans-30" x="279.833984"/>
       <use xlink:href="#DejaVuSans-31" x="343.457031"/>
       <use xlink:href="#DejaVuSans-38" x="407.080078"/>
       <use xlink:href="#DejaVuSans-29" x="470.703125"/>
      </g>
     </g>
    </g>
    <g id="xtick_22">
     <g id="line2d_22">
      <g>
       <use xlink:href="#m461f81f8f8" x="321.540367" y="252" style="stroke: #000000; stroke-width: 0.8"/>
      </g>
     </g>
     <g id="text_21">
      <!-- w6 (2019) -->
      <g transform="translate(317.609473 310.201671) rotate(-75) scale(0.1 -0.1)">
       <use xlink:href="#DejaVuSans-77"/>
       <use xlink:href="#DejaVuSans-36" x="81.787109"/>
       <use xlink:href="#DejaVuSans-20" x="145.410156"/>
       <use xlink:href="#DejaVuSans-28" x="177.197266"/>
       <use xlink:href="#DejaVuSans-32" x="216.210938"/>
       <use xlink:href="#DejaVuSans-30" x="279.833984"/>
       <use xlink:href="#DejaVuSans-31" x="343.457031"/>
       <use xlink:href="#DejaVuSans-39" x="407.080078"/>
       <use xlink:href="#DejaVuSans-29" x="470.703125"/>
      </g>
     </g>
    </g>
    <g id="xtick_23">
     <g id="line2d_23">
      <g>
       <use xlink:href="#m461f81f8f8" x="334.156477" y="252" style="stroke: #000000; stroke-width: 0.8"/>
      </g>
     </g>
     <g id="text_22">
      <!-- w6 (2020) -->
      <g transform="translate(330.225582 310.201671) rotate(-75) scale(0.1 -0.1)">
       <use xlink:href="#DejaVuSans-77"/>
       <use xlink:href="#DejaVuSans-36" x="81.787109"/>
       <use xlink:href="#DejaVuSans-20" x="145.410156"/>
       <use xlink:href="#DejaVuSans-28" x="177.197266"/>
       <use xlink:href="#DejaVuSans-32" x="216.210938"/>
       <use xlink:href="#DejaVuSans-30" x="279.833984"/>
       <use xlink:href="#DejaVuSans-32" x="343.457031"/>
       <use xlink:href="#DejaVuSans-30" x="407.080078"/>
       <use xlink:href="#DejaVuSans-29" x="470.703125"/>
      </g>
     </g>
    </g>
    <g id="xtick_24">
     <g id="line2d_24">
      <g>
       <use xlink:href="#m461f81f8f8" x="346.772586" y="252" style="stroke: #000000; stroke-width: 0.8"/>
      </g>
     </g>
     <g id="text_23">
      <!-- w4 (2021) -->
      <g transform="translate(342.841692 310.201671) rotate(-75) scale(0.1 -0.1)">
       <use xlink:href="#DejaVuSans-77"/>
       <use xlink:href="#DejaVuSans-34" x="81.787109"/>
       <use xlink:href="#DejaVuSans-20" x="145.410156"/>
       <use xlink:href="#DejaVuSans-28" x="177.197266"/>
       <use xlink:href="#DejaVuSans-32" x="216.210938"/>
       <use xlink:href="#DejaVuSans-30" x="279.833984"/>
       <use xlink:href="#DejaVuSans-32" x="343.457031"/>
       <use xlink:href="#DejaVuSans-31" x="407.080078"/>
       <use xlink:href="#DejaVuSans-29" x="470.703125"/>
      </g>
     </g>
    </g>
    <g id="xtick_25">
     <g id="line2d_25">
      <g>
       <use xlink:href="#m461f81f8f8" x="359.388695" y="252" style="stroke: #000000; stroke-width: 0.8"/>
      </g>
     </g>
     <g id="text_24">
      <!-- w21 (2021) -->
      <g transform="translate(354.634433 316.347374) rotate(-75) scale(0.1 -0.1)">
       <use xlink:href="#DejaVuSans-77"/>
       <use xlink:href="#DejaVuSans-32" x="81.787109"/>
       <use xlink:href="#DejaVuSans-31" x="145.410156"/>
       <use xlink:href="#DejaVuSans-20" x="209.033203"/>
       <use xlink:href="#DejaVuSans-28" x="240.820312"/>
       <use xlink:href="#DejaVuSans-32" x="279.833984"/>
       <use xlink:href="#DejaVuSans-30" x="343.457031"/>
       <use xlink:href="#DejaVuSans-32" x="407.080078"/>
       <use xlink:href="#DejaVuSans-31" x="470.703125"/>
       <use xlink:href="#DejaVuSans-29" x="534.326172"/>
      </g>
     </g>
    </g>
    <g id="xtick_26">
     <g id="line2d_26">
      <g>
       <use xlink:href="#m461f81f8f8" x="372.004805" y="252" style="stroke: #000000; stroke-width: 0.8"/>
      </g>
     </g>
     <g id="text_25">
      <!-- w16 (2022) -->
      <g transform="translate(367.250542 316.347374) rotate(-75) scale(0.1 -0.1)">
       <use xlink:href="#DejaVuSans-77"/>
       <use xlink:href="#DejaVuSans-31" x="81.787109"/>
       <use xlink:href="#DejaVuSans-36" x="145.410156"/>
       <use xlink:href="#DejaVuSans-20" x="209.033203"/>
       <use xlink:href="#DejaVuSans-28" x="240.820312"/>
       <use xlink:href="#DejaVuSans-32" x="279.833984"/>
       <use xlink:href="#DejaVuSans-30" x="343.457031"/>
       <use xlink:href="#DejaVuSans-32" x="407.080078"/>
       <use xlink:href="#DejaVuSans-32" x="470.703125"/>
       <use xlink:href="#DejaVuSans-29" x="534.326172"/>
      </g>
     </g>
    </g>
    <g id="xtick_27">
     <g id="line2d_27">
      <g>
       <use xlink:href="#m461f81f8f8" x="384.620914" y="252" style="stroke: #000000; stroke-width: 0.8"/>
      </g>
     </g>
    </g>
   </g>
   <g id="matplotlib.axis_2">
    <g id="ytick_1">
     <g id="line2d_28">
      <defs>
       <path id="m681664d7b9" d="M 0 0 
L -3.5 0 
" style="stroke: #000000; stroke-width: 0.8"/>
      </defs>
      <g>
       <use xlink:href="#m681664d7b9" x="54" y="233.109118" style="stroke: #000000; stroke-width: 0.8"/>
      </g>
     </g>
     <g id="text_26">
      <!-- −1.0 -->
      <g transform="translate(22.717187 236.908337) scale(0.1 -0.1)">
       <defs>
        <path id="DejaVuSans-2212" d="M 678 2272 
L 4684 2272 
L 4684 1741 
L 678 1741 
L 678 2272 
z
" transform="scale(0.015625)"/>
        <path id="DejaVuSans-2e" d="M 684 794 
L 1344 794 
L 1344 0 
L 684 0 
L 684 794 
z
" transform="scale(0.015625)"/>
       </defs>
       <use xlink:href="#DejaVuSans-2212"/>
       <use xlink:href="#DejaVuSans-31" x="83.789062"/>
       <use xlink:href="#DejaVuSans-2e" x="147.412109"/>
       <use xlink:href="#DejaVuSans-30" x="179.199219"/>
      </g>
     </g>
    </g>
    <g id="ytick_2">
     <g id="line2d_29">
      <g>
       <use xlink:href="#m681664d7b9" x="54" y="188.978084" style="stroke: #000000; stroke-width: 0.8"/>
      </g>
     </g>
     <g id="text_27">
      <!-- −0.5 -->
      <g transform="translate(22.717187 192.777302) scale(0.1 -0.1)">
       <use xlink:href="#DejaVuSans-2212"/>
       <use xlink:href="#DejaVuSans-30" x="83.789062"/>
       <use xlink:href="#DejaVuSans-2e" x="147.412109"/>
       <use xlink:href="#DejaVuSans-35" x="179.199219"/>
      </g>
     </g>
    </g>
    <g id="ytick_3">
     <g id="line2d_30">
      <g>
       <use xlink:href="#m681664d7b9" x="54" y="144.847049" style="stroke: #000000; stroke-width: 0.8"/>
      </g>
     </g>
     <g id="text_28">
      <!-- 0.0 -->
      <g transform="translate(31.096875 148.646267) scale(0.1 -0.1)">
       <use xlink:href="#DejaVuSans-30"/>
       <use xlink:href="#DejaVuSans-2e" x="63.623047"/>
       <use xlink:href="#DejaVuSans-30" x="95.410156"/>
      </g>
     </g>
    </g>
    <g id="ytick_4">
     <g id="line2d_31">
      <g>
       <use xlink:href="#m681664d7b9" x="54" y="100.716014" style="stroke: #000000; stroke-width: 0.8"/>
      </g>
     </g>
     <g id="text_29">
      <!-- 0.5 -->
      <g transform="translate(31.096875 104.515233) scale(0.1 -0.1)">
       <use xlink:href="#DejaVuSans-30"/>
       <use xlink:href="#DejaVuSans-2e" x="63.623047"/>
       <use xlink:href="#DejaVuSans-35" x="95.410156"/>
      </g>
     </g>
    </g>
    <g id="ytick_5">
     <g id="line2d_32">
      <g>
       <use xlink:href="#m681664d7b9" x="54" y="56.584979" style="stroke: #000000; stroke-width: 0.8"/>
      </g>
     </g>
     <g id="text_30">
      <!-- 1.0 -->
      <g transform="translate(31.096875 60.384198) scale(0.1 -0.1)">
       <use xlink:href="#DejaVuSans-31"/>
       <use xlink:href="#DejaVuSans-2e" x="63.623047"/>
       <use xlink:href="#DejaVuSans-30" x="95.410156"/>
      </g>
     </g>
    </g>
   </g>
   <g id="line2d_33">
    <path d="M 69.218182 101.439621 
L 70.006689 109.522256 
L 70.795195 124.583259 
L 71.583702 120.900856 
L 72.372209 64.878786 
L 73.160716 82.354802 
L 73.949223 117.939747 
L 74.73773 127.982375 
L 75.526236 114.578437 
L 76.314743 116.39715 
L 77.10325 138.957295 
L 77.891757 154.516393 
L 78.680264 156.577151 
L 79.468771 196.547449 
L 80.257277 91.171279 
L 81.045784 104.88363 
L 81.834291 145.481381 
L 82.622798 123.508855 
L 83.411305 132.083211 
L 84.199812 128.313413 
L 84.988318 72.356492 
L 85.776825 117.484175 
L 86.565332 151.252938 
L 87.353839 133.900759 
L 88.142346 155.805683 
L 89.719359 117.157214 
L 90.507866 147.488629 
L 91.296373 46.522427 
L 92.08488 144.137992 
L 92.873387 106.668052 
L 93.661894 134.444913 
L 94.4504 86.218974 
L 95.238907 143.079612 
L 96.027414 152.347574 
L 96.815921 133.177327 
L 97.604428 157.286811 
L 98.392935 138.156814 
L 99.181441 144.861076 
L 99.969948 166.96161 
L 100.758455 139.291108 
L 101.546962 162.661145 
L 102.335469 115.225362 
L 103.123976 134.296342 
L 103.912482 133.826712 
L 104.700989 144.675012 
L 105.489496 120.282662 
L 106.278003 129.316968 
L 107.06651 184.673195 
L 107.855016 175.231159 
L 108.643523 136.015653 
L 109.43203 148.948175 
L 110.220537 140.613105 
L 111.009044 168.458634 
L 111.797551 157.407041 
L 112.586057 126.411488 
L 113.374564 112.061651 
L 114.163071 101.877893 
L 114.951578 140.313527 
L 115.740085 111.179124 
L 116.528592 149.177303 
L 117.317098 195.532326 
L 118.105605 149.216459 
L 118.894112 164.389035 
L 119.682619 96.868766 
L 120.471126 141.922094 
L 121.259633 119.116494 
L 122.048139 130.454483 
L 122.836646 181.04946 
L 123.625153 143.100466 
L 124.41366 131.091416 
L 125.202167 135.086462 
L 125.990674 143.605381 
L 126.77918 109.670181 
L 127.567687 120.002552 
L 128.356194 146.486094 
L 129.144701 147.631817 
L 129.933208 144.282535 
L 130.721715 131.334966 
L 131.510221 155.152682 
L 132.298728 141.264031 
L 133.087235 151.13849 
L 133.875742 173.787751 
L 134.664249 174.665424 
L 135.452756 133.073111 
L 136.241262 134.200524 
L 137.029769 106.838752 
L 137.818276 138.13806 
L 138.606783 127.830402 
L 139.39529 146.508356 
L 140.183797 150.041181 
L 140.972303 130.030465 
L 141.76081 133.16213 
L 142.549317 145.94434 
L 143.337824 155.339414 
L 144.126331 151.388323 
L 146.491851 111.283878 
L 147.280358 163.894407 
L 148.068865 176.959973 
L 148.857372 170.645439 
L 149.645878 126.933983 
L 151.222892 168.012971 
L 152.011399 151.622259 
L 152.799906 120.831949 
L 153.588413 120.122756 
L 154.376919 116.318838 
L 155.165426 129.796749 
L 155.953933 114.990301 
L 156.74244 133.923789 
L 157.530947 149.832306 
L 158.319454 195.167183 
L 159.10796 151.099744 
L 159.896467 159.602728 
L 160.684974 134.408156 
L 161.473481 154.889993 
L 162.261988 112.486339 
L 163.050495 100.924582 
L 163.839001 160.245856 
L 164.627508 151.557426 
L 165.416015 172.883411 
L 166.204522 169.954736 
L 166.993029 166.039269 
L 167.781536 189.179327 
L 168.570042 184.352331 
L 169.358549 118.040512 
L 170.147056 99.571581 
L 170.935563 157.236211 
L 171.72407 175.571139 
L 172.512577 140.334318 
L 173.301083 146.510031 
L 174.08959 176.547875 
L 174.878097 138.078189 
L 175.666604 201.397537 
L 176.455111 165.784062 
L 177.243618 177.874752 
L 178.032124 152.625636 
L 178.820631 192.620453 
L 179.609138 152.858288 
L 180.397645 141.434381 
L 181.186152 137.584378 
L 181.974659 181.532903 
L 182.763165 236.82863 
L 183.551672 158.916804 
L 184.340179 186.559279 
L 185.128686 174.965376 
L 185.917193 159.961216 
L 186.705699 134.688827 
L 187.494206 158.520391 
L 188.282713 151.711965 
L 189.07122 170.699969 
L 189.859727 160.299834 
L 190.648234 163.105947 
L 191.43674 183.009094 
L 193.013754 138.866763 
L 193.802261 202.866059 
L 194.590768 145.099845 
L 195.379275 141.756917 
L 196.167781 162.627654 
L 196.956288 170.667243 
L 197.744795 204.544967 
L 198.533302 194.157269 
L 199.321809 144.769684 
L 200.898822 205.296135 
L 201.687329 166.211342 
L 202.475836 144.823115 
L 203.264343 132.523261 
L 204.05285 154.832221 
L 204.841357 195.237284 
L 205.629863 140.592315 
L 206.41837 146.007208 
L 207.206877 128.192148 
L 207.995384 139.964075 
L 208.783891 155.440762 
L 209.572398 96.303941 
L 210.360904 146.818779 
L 211.149411 182.985006 
L 211.937918 166.565678 
L 212.726425 142.620627 
L 213.514932 171.347501 
L 214.303439 166.38038 
L 215.091945 129.32872 
L 215.880452 189.923792 
L 216.668959 170.33098 
L 217.457466 162.587714 
L 218.245973 175.933388 
L 219.03448 159.253419 
L 219.822986 152.08985 
L 220.611493 166.377381 
L 221.4 186.899732 
L 222.188507 173.709769 
L 222.977014 165.990512 
L 223.76552 163.661641 
L 224.554027 150.204336 
L 225.342534 181.851014 
L 226.131041 166.479588 
L 226.919548 134.512068 
L 227.708055 135.4282 
L 228.496561 189.42936 
L 229.285068 135.880441 
L 230.073575 159.249562 
L 230.862082 125.90265 
L 231.650589 151.677432 
L 232.439096 163.529375 
L 233.227602 102.322324 
L 234.016109 172.162425 
L 234.804616 134.576276 
L 235.593123 152.942168 
L 236.38163 142.870757 
L 237.170137 148.3269 
L 237.958643 119.639027 
L 238.74715 138.745851 
L 239.535657 137.517192 
L 240.324164 138.594916 
L 241.112671 183.502594 
L 241.901178 178.964557 
L 242.689684 133.559905 
L 243.478191 81.008983 
L 244.266698 157.031328 
L 245.055205 193.366426 
L 245.843712 140.662456 
L 246.632219 64.328243 
L 247.420725 126.510358 
L 248.997739 187.029896 
L 249.786246 107.974795 
L 250.574753 126.255138 
L 251.36326 173.610055 
L 252.151766 183.799285 
L 252.940273 108.973224 
L 254.517287 140.57845 
L 255.305794 167.300222 
L 256.094301 106.600107 
L 256.882807 170.548886 
L 257.671314 173.125714 
L 258.459821 207.32424 
L 259.248328 145.999839 
L 260.036835 159.614 
L 261.613848 108.809163 
L 262.402355 163.566997 
L 263.190862 138.634049 
L 263.979369 183.296525 
L 264.767876 125.264949 
L 265.556382 174.201731 
L 266.344889 172.650505 
L 267.133396 129.61793 
L 267.921903 201.552079 
L 269.498917 161.352466 
L 270.287423 166.441229 
L 271.07593 189.634108 
L 271.864437 161.279924 
L 272.652944 169.136136 
L 273.441451 181.886631 
L 274.229958 157.945033 
L 275.018464 88.480079 
L 275.806971 142.48445 
L 276.595478 138.331796 
L 277.383985 193.969103 
L 278.172492 148.71778 
L 278.960999 167.873423 
L 279.749505 136.019761 
L 280.538012 169.401889 
L 281.326519 88.452167 
L 282.115026 169.799573 
L 282.903533 150.177304 
L 283.69204 146.708821 
L 284.480546 179.723192 
L 285.269053 168.359979 
L 286.05756 183.580062 
L 286.846067 180.603822 
L 287.634574 181.680481 
L 288.423081 186.177926 
L 289.211587 242.116364 
L 290.000094 114.868976 
L 290.788601 128.854497 
L 291.577108 73.916214 
L 292.365615 128.442835 
L 293.154122 162.936633 
L 293.942628 177.148443 
L 294.731135 136.400787 
L 295.519642 44.443636 
L 296.308149 129.874459 
L 297.096656 157.836494 
L 297.885163 130.191545 
L 298.673669 134.695953 
L 299.462176 165.285913 
L 300.250683 149.712676 
L 301.03919 117.38506 
L 301.827697 179.478071 
L 302.616203 152.097611 
L 303.40471 130.629269 
L 304.193217 104.495368 
L 304.981724 105.993774 
L 305.770231 81.996541 
L 307.347244 157.785607 
L 308.135751 113.446884 
L 308.924258 121.021409 
L 309.712765 110.786178 
L 310.501272 118.533764 
L 311.289779 129.642915 
L 312.078285 157.535685 
L 312.866792 181.221628 
L 313.655299 152.94995 
L 314.443806 130.281379 
L 315.232313 97.858242 
L 316.02082 136.282232 
L 316.809326 135.571899 
L 317.597833 168.59681 
L 318.38634 149.041836 
L 319.174847 122.8811 
L 319.963354 140.21742 
L 320.751861 148.42852 
L 321.540367 117.918059 
L 322.328874 202.18458 
L 323.117381 102.173776 
L 323.905888 77.977313 
L 324.694395 186.247327 
L 325.482902 119.597557 
L 326.271408 165.833822 
L 327.059915 101.677316 
L 328.636929 151.561533 
L 329.425436 137.530827 
L 330.213943 116.377381 
L 331.002449 131.213327 
L 331.790956 78.030096 
L 332.579463 112.873022 
L 333.36797 159.895294 
L 334.156477 109.309877 
L 334.944984 152.620733 
L 335.73349 135.752843 
L 336.521997 180.61869 
L 337.310504 133.246073 
L 338.099011 126.731149 
L 338.887518 201.261101 
L 339.676024 111.380628 
L 340.464531 160.17237 
L 341.253038 171.421416 
L 342.041545 149.42576 
L 342.830052 152.230773 
L 343.618559 143.606297 
L 344.407065 147.379894 
L 345.195572 83.231701 
L 345.984079 110.87015 
L 346.772586 104.860343 
L 347.561093 139.712253 
L 348.3496 112.200236 
L 349.138106 103.517895 
L 349.926613 113.869941 
L 350.71512 111.013081 
L 351.503627 178.159604 
L 352.292134 167.658415 
L 353.080641 150.578618 
L 353.869147 115.344886 
L 354.657654 105.958109 
L 355.446161 151.381837 
L 356.234668 168.15716 
L 357.023175 130.450801 
L 357.811682 114.853841 
L 358.600188 76.140967 
L 359.388695 118.308532 
L 360.177202 120.238596 
L 360.965709 137.573659 
L 361.754216 175.638472 
L 363.331229 110.544774 
L 364.119736 165.445103 
L 364.908243 166.884878 
L 365.69675 136.928968 
L 366.485257 143.755164 
L 368.06227 173.306645 
L 368.850777 144.571164 
L 369.639284 178.61331 
L 370.427791 168.297851 
L 371.216298 140.477183 
L 372.004805 156.528815 
L 372.793311 100.910844 
L 373.581818 191.235229 
L 373.581818 191.235229 
" clip-path="url(#pa3c8c595ca)" style="fill: none; stroke: #1f77b4; stroke-opacity: 0.5; stroke-linecap: square"/>
   </g>
   <g id="line2d_34">
    <path d="M 69.218182 119.680988 
L 70.006689 117.792228 
L 70.795195 119.049685 
L 71.583702 119.391313 
L 72.372209 109.358573 
L 73.160716 104.399714 
L 73.949223 106.881638 
L 74.73773 110.743725 
L 75.526236 111.444746 
L 76.314743 112.380072 
L 77.10325 116.553716 
L 77.891757 121.85045 
L 78.680264 126.114555 
L 79.468771 134.496241 
L 80.257277 128.435036 
L 81.045784 125.304575 
L 81.834291 127.214083 
L 82.622798 129.600665 
L 83.411305 130.052366 
L 84.199812 129.736004 
L 84.988318 119.298273 
L 85.776825 118.968306 
L 86.565332 124.840157 
L 87.353839 126.487979 
L 88.142346 131.819636 
L 88.930853 132.883737 
L 89.719359 129.799687 
L 90.507866 132.331368 
L 91.296373 119.728712 
L 92.08488 123.412031 
L 92.873387 121.447824 
L 93.661894 123.178394 
L 94.4504 119.133771 
L 96.027414 124.967408 
L 96.815921 125.653788 
L 97.604428 133.021676 
L 98.392935 133.955352 
L 99.181441 135.938237 
L 99.969948 141.578911 
L 100.758455 141.162943 
L 101.546962 145.071735 
L 102.335469 139.64509 
L 103.912482 137.791514 
L 104.700989 138.807173 
L 105.489496 135.730296 
L 106.278003 134.773741 
L 107.06651 141.412533 
L 107.855016 145.23538 
L 108.643523 143.586131 
L 109.43203 143.758651 
L 110.220537 146.08348 
L 111.009044 150.151693 
L 111.797551 151.470848 
L 112.586057 146.914598 
L 114.163071 133.541367 
L 114.951578 134.772669 
L 115.740085 130.482933 
L 116.528592 133.88191 
L 117.317098 144.552682 
L 118.105605 144.908919 
L 118.894112 147.384743 
L 119.682619 140.249319 
L 120.471126 140.504625 
L 121.259633 137.999574 
L 122.048139 137.28149 
L 122.836646 141.886155 
L 123.625153 143.474033 
L 124.41366 141.222648 
L 125.202167 140.106978 
L 125.990674 140.743051 
L 126.77918 135.093438 
L 127.567687 132.349641 
L 129.144701 137.231162 
L 129.933208 138.51323 
L 130.721715 137.270904 
L 131.510221 140.083599 
L 132.298728 140.142106 
L 133.087235 141.523019 
L 133.875742 145.41441 
L 134.664249 148.536629 
L 135.452756 146.392536 
L 136.241262 144.841099 
L 137.029769 140.872264 
L 137.818276 139.168023 
L 138.606783 137.106637 
L 139.39529 138.816041 
L 140.183797 140.856975 
L 140.972303 138.888519 
L 141.76081 137.847357 
L 142.549317 139.319536 
L 143.337824 142.232241 
L 144.126331 143.896983 
L 144.914837 142.736063 
L 145.703344 140.011337 
L 146.491851 135.986167 
L 147.280358 140.002968 
L 148.068865 144.649428 
L 148.857372 147.491621 
L 149.645878 144.884523 
L 150.434385 146.948194 
L 151.222892 150.778153 
L 152.011399 150.931627 
L 152.799906 145.458958 
L 154.376919 136.391733 
L 155.165426 135.192645 
L 155.953933 131.519491 
L 156.74244 131.956636 
L 157.530947 135.527327 
L 158.319454 144.971765 
L 159.10796 145.512921 
L 159.896467 147.103217 
L 160.684974 145.19733 
L 161.473481 146.170361 
L 162.261988 142.236185 
L 163.050495 134.227512 
L 163.839001 138.95812 
L 164.627508 141.248903 
L 165.416015 147.000632 
L 166.204522 151.174105 
L 166.993029 153.876862 
L 167.781536 160.295492 
L 168.570042 164.669463 
L 169.358549 156.191472 
L 170.147056 146.376787 
L 170.935563 148.32149 
L 171.72407 152.271269 
L 172.512577 150.467649 
L 173.301083 149.871362 
L 174.08959 152.934499 
L 174.878097 151.051042 
L 175.666604 160.759935 
L 176.455111 161.673413 
L 177.243618 164.619111 
L 178.032124 162.438479 
L 178.820631 167.92611 
L 179.609138 165.186506 
L 181.186152 156.634564 
L 181.974659 161.161534 
L 182.763165 173.660453 
L 183.551672 170.451668 
L 184.340179 172.148096 
L 185.128686 171.884678 
L 185.917193 169.833572 
L 186.705699 165.291728 
L 187.494206 164.378388 
L 188.282713 161.780997 
L 189.07122 163.402628 
L 189.859727 162.838484 
L 190.648234 162.887113 
L 191.43674 166.545655 
L 192.225247 165.28675 
L 193.013754 160.483116 
L 193.802261 168.189106 
L 195.379275 160.35485 
L 196.167781 160.993168 
L 196.956288 162.56658 
L 197.744795 168.227818 
L 198.533302 171.209705 
L 199.321809 167.720674 
L 200.110316 168.577743 
L 200.898822 176.763312 
L 201.687329 174.844772 
L 202.475836 169.386289 
L 203.264343 162.68392 
L 204.05285 161.256338 
L 204.841357 167.434692 
L 205.629863 162.55426 
L 206.41837 159.545705 
L 207.206877 153.845058 
L 207.995384 152.332652 
L 208.783891 153.568671 
L 209.572398 145.951079 
L 210.360904 146.994811 
L 211.149411 152.233624 
L 211.937918 154.296971 
L 212.726425 153.243127 
L 213.514932 154.866913 
L 214.303439 156.960271 
L 215.091945 151.936353 
L 215.880452 158.84316 
L 216.668959 160.931854 
L 217.457466 161.23292 
L 218.245973 163.905732 
L 219.03448 163.059857 
L 219.822986 161.06531 
L 220.611493 161.784963 
L 221.4 165.450846 
L 222.188507 166.234015 
L 222.977014 165.821198 
L 223.76552 165.24826 
L 224.554027 163.244463 
L 226.131041 166.968788 
L 226.919548 161.067566 
L 227.708055 156.405863 
L 228.496561 162.410135 
L 229.285068 157.586555 
L 230.073575 157.88892 
L 230.862082 152.073234 
L 231.650589 152.00127 
L 232.439096 154.097289 
L 233.227602 145.766219 
L 234.016109 150.63695 
L 234.804616 148.727415 
L 235.593123 149.743292 
L 236.38163 149.23041 
L 237.170137 149.464021 
L 237.958643 146.447158 
L 238.74715 141.63916 
L 239.535657 140.889711 
L 240.324164 140.472476 
L 241.112671 148.296133 
L 241.901178 153.872211 
L 242.689684 150.179064 
L 243.478191 137.602686 
L 244.266698 141.135166 
L 245.055205 150.631759 
L 245.843712 148.819158 
L 246.632219 135.511342 
L 247.420725 134.945051 
L 248.209232 138.296713 
L 248.997739 144.77225 
L 249.786246 140.460615 
L 250.574753 139.138239 
L 251.36326 143.230752 
L 252.151766 150.606849 
L 252.940273 143.037099 
L 253.72878 139.540098 
L 254.517287 139.728889 
L 255.305794 144.741859 
L 256.094301 137.806995 
L 257.671314 149.099275 
L 258.459821 158.304793 
L 259.248328 155.417631 
L 260.036835 155.382083 
L 260.825341 151.880545 
L 261.613848 146.229909 
L 262.402355 148.32547 
L 263.190862 147.183299 
L 263.979369 153.337226 
L 264.767876 148.233176 
L 265.556382 152.954731 
L 266.344889 156.535781 
L 267.133396 151.641626 
L 267.921903 160.716254 
L 268.71041 164.450355 
L 269.498917 163.887102 
L 270.287423 164.351489 
L 271.07593 167.998856 
L 271.864437 166.221167 
L 272.652944 166.092462 
L 273.441451 167.709682 
L 274.229958 165.95075 
L 275.018464 156.435853 
L 275.806971 154.979522 
L 276.595478 149.203577 
L 277.383985 157.342763 
L 278.172492 155.774585 
L 278.960999 157.974373 
L 279.749505 153.982626 
L 280.538012 156.786128 
L 281.326519 144.361772 
L 282.115026 148.986826 
L 282.903533 149.203277 
L 283.69204 149.126724 
L 284.480546 154.14297 
L 285.269053 156.143725 
L 286.05756 159.680872 
L 286.846067 162.013693 
L 288.423081 166.04382 
L 289.211587 184.308092 
L 290.000094 171.682798 
L 290.788601 163.895834 
L 291.577108 147.535903 
L 292.365615 144.064436 
L 293.154122 147.495745 
L 293.942628 152.887144 
L 294.731135 149.889625 
L 295.519642 130.717627 
L 296.308149 132.301249 
L 297.096656 137.546987 
L 297.885163 137.296851 
L 298.673669 137.674943 
L 299.462176 141.754865 
L 300.250683 143.048821 
L 301.03919 140.472782 
L 301.827697 144.965636 
L 302.616203 146.359821 
L 303.40471 143.499721 
L 304.193217 136.40802 
L 304.981724 130.878157 
L 305.770231 121.990591 
L 306.558738 121.174645 
L 307.347244 127.831183 
L 308.135751 125.215856 
L 308.924258 124.45323 
L 309.712765 121.968311 
L 310.501272 121.99866 
L 311.289779 124.212168 
L 312.078285 129.088455 
L 312.866792 135.756652 
L 313.655299 137.611956 
L 314.443806 136.606678 
L 315.232313 132.608141 
L 316.02082 133.117413 
L 316.809326 133.482711 
L 317.597833 139.550455 
L 318.38634 141.276161 
L 319.174847 137.931604 
L 319.963354 138.347207 
L 320.751861 140.180173 
L 321.540367 136.132516 
L 322.328874 148.141982 
L 323.117381 139.784126 
L 323.905888 128.546524 
L 324.694395 138.869502 
L 325.482902 135.771072 
L 326.271408 140.136039 
L 327.059915 134.804892 
L 327.848422 133.941034 
L 328.636929 136.151998 
L 329.425436 136.312035 
L 330.213943 132.69732 
L 331.002449 132.427503 
L 331.790956 122.537065 
L 332.579463 120.779967 
L 333.36797 127.891844 
L 334.156477 124.513305 
L 334.944984 129.623746 
L 335.73349 130.738128 
L 336.521997 139.807321 
L 337.310504 138.012909 
L 338.099011 135.85692 
L 338.887518 144.999719 
L 339.676024 139.827059 
L 340.464531 142.078406 
L 341.253038 145.162859 
L 342.041545 145.166125 
L 342.830052 145.499783 
L 343.618559 144.933376 
L 344.407065 148.671165 
L 345.195572 136.773081 
L 346.772586 127.117436 
L 347.561093 129.407403 
L 348.3496 126.278827 
L 349.138106 122.140476 
L 349.926613 120.636742 
L 350.71512 118.886986 
L 351.503627 129.663825 
L 352.292134 135.529282 
L 353.080641 137.411517 
L 354.657654 130.600865 
L 355.446161 133.204612 
L 356.234668 137.104587 
L 357.023175 136.243464 
L 357.811682 134.011365 
L 358.600188 128.519531 
L 359.388695 127.838601 
L 360.177202 127.425592 
L 360.965709 124.880013 
L 361.754216 134.108823 
L 362.542723 135.463036 
L 363.331229 130.932443 
L 364.908243 142.603364 
L 365.69675 141.571656 
L 366.485257 141.968657 
L 367.273764 144.915837 
L 368.06227 149.030008 
L 368.850777 147.545676 
L 369.639284 151.3918 
L 370.427791 152.902358 
L 371.216298 150.615595 
L 372.004805 150.781366 
L 372.793311 144.751961 
L 373.581818 149.483391 
L 373.581818 149.483391 
" clip-path="url(#pa3c8c595ca)" style="fill: none; stroke: #ff7f0e; stroke-width: 2; stroke-linecap: square"/>
   </g>
   <g id="line2d_35">
    <path d="M 69.218182 119.680988 
L 70.006689 117.792228 
L 70.795195 119.049685 
L 71.583702 119.391313 
L 72.372209 109.358573 
L 73.160716 104.399714 
L 73.949223 106.881638 
L 74.73773 110.743725 
L 75.526236 111.444746 
L 76.314743 112.349195 
L 77.10325 117.204652 
L 78.680264 129.944746 
L 79.468771 142.078446 
L 80.257277 132.80752 
L 81.045784 127.723685 
L 81.834291 130.955876 
L 82.622798 129.600665 
L 83.411305 130.052366 
L 84.199812 129.736004 
L 84.988318 119.298273 
L 85.776825 118.968306 
L 86.565332 124.840157 
L 87.353839 126.487979 
L 88.142346 131.819636 
L 88.930853 132.883737 
L 89.719359 130.023951 
L 90.507866 133.199727 
L 91.296373 117.438674 
L 92.08488 122.293485 
L 92.873387 119.452311 
L 93.661894 122.178385 
L 94.4504 115.640023 
L 95.238907 120.629218 
L 96.027414 126.396362 
L 96.815921 127.629294 
L 97.604428 133.021676 
L 98.392935 133.955352 
L 99.181441 135.938237 
L 99.969948 141.578911 
L 100.758455 141.162943 
L 101.546962 145.071735 
L 102.335469 139.64509 
L 103.912482 137.791514 
L 104.700989 139.043063 
L 105.489496 135.632072 
L 106.278003 134.483869 
L 107.06651 143.609217 
L 107.855016 149.35867 
L 108.643523 146.932664 
L 109.43203 147.299121 
L 110.220537 146.08348 
L 111.009044 150.151693 
L 111.797551 151.470848 
L 112.586057 146.914598 
L 114.163071 133.541367 
L 114.951578 134.772669 
L 115.740085 130.482933 
L 116.528592 133.88191 
L 117.317098 145.091078 
L 118.105605 145.841147 
L 118.894112 149.213491 
L 119.682619 139.696267 
L 120.471126 140.100963 
L 121.259633 136.285605 
L 122.048139 135.225401 
L 122.836646 143.557048 
L 123.625153 143.474033 
L 124.41366 141.222648 
L 125.202167 140.106978 
L 125.990674 140.743051 
L 126.77918 135.093438 
L 127.567687 132.349641 
L 129.144701 137.231162 
L 129.933208 138.51323 
L 130.721715 137.208091 
L 131.510221 140.470744 
L 132.298728 140.614978 
L 133.087235 142.528344 
L 133.875742 148.211872 
L 134.664249 153.021609 
L 135.452756 149.394609 
L 136.241262 146.632048 
L 137.029769 139.396903 
L 137.818276 139.168023 
L 138.606783 137.106637 
L 139.39529 138.816041 
L 140.183797 140.856975 
L 140.972303 138.888519 
L 141.76081 137.847357 
L 142.549317 139.319536 
L 143.337824 142.232241 
L 144.126331 143.896983 
L 144.914837 142.885197 
L 145.703344 139.764795 
L 146.491851 134.586446 
L 147.280358 139.915167 
L 148.068865 146.650586 
L 148.857372 151.013286 
L 149.645878 146.635231 
L 150.434385 146.948194 
L 151.222892 150.778153 
L 152.011399 150.931627 
L 152.799906 145.458958 
L 154.376919 136.391733 
L 155.165426 135.192645 
L 155.953933 131.519491 
L 156.74244 131.956636 
L 157.530947 135.206758 
L 158.319454 146.108654 
L 159.10796 147.016125 
L 159.896467 149.304598 
L 160.684974 146.596154 
L 161.473481 148.104125 
L 162.261988 141.628164 
L 163.050495 134.227512 
L 163.839001 138.95812 
L 164.627508 141.248903 
L 165.416015 147.000632 
L 166.204522 151.174105 
L 166.993029 153.876862 
L 167.781536 160.295492 
L 168.570042 164.669463 
L 169.358549 156.191472 
L 170.147056 145.896946 
L 170.935563 147.958631 
L 171.72407 152.979087 
L 172.512577 150.680038 
L 173.301083 149.921855 
L 174.08959 154.762949 
L 174.878097 151.729357 
L 175.666604 160.759935 
L 176.455111 161.673413 
L 177.243618 164.619111 
L 178.032124 162.438479 
L 178.820631 167.92611 
L 179.609138 165.186506 
L 181.186152 156.634564 
L 181.974659 161.161534 
L 182.763165 174.919188 
L 183.551672 172.009664 
L 184.340179 174.655048 
L 185.128686 174.711472 
L 185.917193 172.029607 
L 186.705699 165.240374 
L 187.494206 164.018559 
L 188.282713 161.780997 
L 189.07122 163.402628 
L 189.859727 162.838484 
L 190.648234 162.887113 
L 191.43674 166.545655 
L 192.225247 165.28675 
L 193.013754 160.483116 
L 193.802261 168.189106 
L 195.379275 159.948487 
L 196.167781 160.435609 
L 196.956288 162.295906 
L 197.744795 169.977553 
L 198.533302 174.373865 
L 199.321809 168.991287 
L 200.110316 170.422684 
L 200.898822 176.763312 
L 201.687329 174.844772 
L 202.475836 169.386289 
L 203.264343 162.68392 
L 204.05285 161.256338 
L 204.841357 167.434692 
L 205.629863 162.55426 
L 206.41837 159.545705 
L 207.206877 153.845058 
L 207.995384 151.321243 
L 208.783891 152.070247 
L 209.572398 141.930918 
L 210.360904 142.81962 
L 211.149411 150.122418 
L 211.937918 153.112101 
L 212.726425 151.204561 
L 213.514932 154.866913 
L 214.303439 156.960271 
L 215.091945 151.936353 
L 215.880452 158.84316 
L 216.668959 160.931854 
L 217.457466 161.23292 
L 218.245973 163.905732 
L 219.03448 163.059857 
L 219.822986 161.06531 
L 220.611493 162.031141 
L 221.4 166.552703 
L 222.188507 167.853988 
L 222.977014 167.515174 
L 223.76552 166.814532 
L 224.554027 163.794496 
L 225.342534 167.077499 
L 226.131041 166.968788 
L 226.919548 161.067566 
L 227.708055 156.405863 
L 228.496561 162.410135 
L 229.285068 157.586555 
L 230.073575 157.88892 
L 230.862082 152.073234 
L 231.650589 152.00127 
L 232.439096 154.097289 
L 233.227602 144.683659 
L 234.016109 149.679798 
L 234.804616 146.933704 
L 235.593123 148.026152 
L 236.38163 147.088807 
L 237.170137 147.313915 
L 237.958643 142.282117 
L 240.324164 140.472476 
L 241.112671 148.296133 
L 241.901178 153.872211 
L 242.689684 150.179064 
L 243.478191 137.602686 
L 244.266698 141.135166 
L 245.055205 150.631759 
L 245.843712 148.819158 
L 246.632219 133.457174 
L 247.420725 132.194116 
L 248.209232 136.382733 
L 248.997739 145.591308 
L 249.786246 138.751942 
L 250.574753 136.479796 
L 252.151766 150.606849 
L 252.940273 143.037099 
L 253.72878 139.540098 
L 254.517287 139.728889 
L 255.305794 144.741859 
L 256.094301 137.806995 
L 257.671314 149.099275 
L 258.459821 159.685632 
L 259.248328 157.197306 
L 260.036835 157.636705 
L 260.825341 153.179373 
L 261.613848 145.112062 
L 262.402355 148.467505 
L 263.190862 146.679604 
L 263.979369 153.337226 
L 264.767876 148.233176 
L 265.556382 152.954731 
L 266.344889 156.535781 
L 267.133396 151.641626 
L 267.921903 160.716254 
L 268.71041 164.450355 
L 269.498917 163.887102 
L 270.287423 164.351489 
L 271.07593 168.948329 
L 271.864437 167.554073 
L 272.652944 167.841721 
L 273.441451 170.395341 
L 274.229958 168.131649 
L 275.018464 153.649545 
L 275.806971 151.619528 
L 276.595478 149.203577 
L 277.383985 157.342763 
L 278.172492 155.774585 
L 278.960999 157.974373 
L 279.749505 153.982626 
L 280.538012 156.786128 
L 281.326519 144.361772 
L 282.115026 148.986826 
L 282.903533 149.203277 
L 283.69204 148.749739 
L 284.480546 154.381276 
L 285.269053 156.922859 
L 286.05756 161.769623 
L 287.634574 168.191561 
L 288.423081 171.461809 
L 289.211587 184.308092 
L 290.000094 171.682798 
L 290.788601 163.895834 
L 291.577108 147.535903 
L 292.365615 144.064436 
L 293.154122 147.495745 
L 293.942628 152.887144 
L 294.731135 149.889625 
L 295.519642 130.717627 
L 296.308149 130.564324 
L 297.096656 135.5229 
L 297.885163 134.553563 
L 298.673669 134.579452 
L 299.462176 140.162445 
L 300.250683 141.898851 
L 301.03919 137.441798 
L 301.827697 145.084757 
L 302.616203 146.359821 
L 303.40471 143.499721 
L 304.193217 136.40802 
L 304.981724 130.878157 
L 305.770231 121.990591 
L 306.558738 121.174645 
L 307.347244 127.831183 
L 308.135751 125.215856 
L 308.924258 124.45323 
L 309.712765 121.968311 
L 310.501272 121.343848 
L 311.289779 122.852769 
L 312.078285 129.158754 
L 312.866792 138.624731 
L 313.655299 141.229316 
L 314.443806 139.238782 
L 315.232313 131.715048 
L 316.02082 132.545445 
L 316.809326 133.095709 
L 317.597833 139.550455 
L 318.38634 141.276161 
L 319.174847 137.931604 
L 319.963354 138.347207 
L 320.751861 140.180173 
L 321.540367 136.132516 
L 322.328874 148.141982 
L 323.117381 139.784126 
L 323.905888 128.546524 
L 324.694395 139.037579 
L 325.482902 135.50303 
L 326.271408 141.017719 
L 327.059915 133.864919 
L 327.848422 132.610061 
L 328.636929 136.055783 
L 329.425436 136.323973 
L 330.213943 132.69732 
L 331.002449 132.427503 
L 331.790956 122.537065 
L 332.579463 120.779967 
L 333.36797 127.891844 
L 334.156477 124.513305 
L 334.944984 129.623746 
L 335.73349 130.738128 
L 336.521997 139.807321 
L 337.310504 138.614367 
L 338.099011 136.453782 
L 338.887518 148.236931 
L 339.676024 141.535785 
L 340.464531 144.924255 
L 341.253038 149.74192 
L 342.041545 149.684437 
L 342.830052 150.147407 
L 343.618559 148.958114 
L 344.407065 148.671165 
L 345.195572 136.773081 
L 346.772586 127.117436 
L 347.561093 129.407403 
L 348.3496 126.278827 
L 349.138106 122.140476 
L 349.926613 120.636742 
L 350.71512 118.886986 
L 351.503627 129.663825 
L 352.292134 136.571933 
L 353.080641 139.118603 
L 353.869147 134.796109 
L 354.657654 129.552836 
L 355.446161 133.521745 
L 356.234668 139.819094 
L 357.023175 138.115768 
L 357.811682 133.886326 
L 358.600188 123.38717 
L 359.388695 122.463781 
L 360.177202 122.059202 
L 360.965709 124.880013 
L 361.754216 134.108823 
L 362.542723 135.463036 
L 363.331229 130.932443 
L 364.908243 142.603364 
L 365.69675 141.571656 
L 366.485257 141.968657 
L 367.273764 144.915837 
L 368.06227 150.077802 
L 368.850777 149.076595 
L 369.639284 154.446907 
L 370.427791 156.965261 
L 371.216298 153.967428 
L 372.004805 154.433135 
L 372.793311 144.701809 
L 373.581818 153.162431 
L 373.581818 153.162431 
" clip-path="url(#pa3c8c595ca)" style="fill: none; stroke: #2ca02c; stroke-width: 2; stroke-linecap: square"/>
   </g>
   <g id="line2d_36">
    <path d="M 54 144.847049 
L 388.8 144.847049 
" clip-path="url(#pa3c8c595ca)" style="fill: none; stroke: #ff0000; stroke-opacity: 0.5; stroke-width: 1.5; stroke-linecap: square"/>
   </g>
   <g id="patch_3">
    <path d="M 54 252 
L 54 34.56 
" style="fill: none; stroke: #000000; stroke-width: 0.8; stroke-linejoin: miter; stroke-linecap: square"/>
   </g>
   <g id="patch_4">
    <path d="M 388.8 252 
L 388.8 34.56 
" style="fill: none; stroke: #000000; stroke-width: 0.8; stroke-linejoin: miter; stroke-linecap: square"/>
   </g>
   <g id="patch_5">
    <path d="M 54 252 
L 388.8 252 
" style="fill: none; stroke: #000000; stroke-width: 0.8; stroke-linejoin: miter; stroke-linecap: square"/>
   </g>
   <g id="patch_6">
    <path d="M 54 34.56 
L 388.8 34.56 
" style="fill: none; stroke: #000000; stroke-width: 0.8; stroke-linejoin: miter; stroke-linecap: square"/>
   </g>
   <g id="text_31">
    <!-- LA Passing EPA per play -->
    <g transform="translate(149.833125 28.56) scale(0.12 -0.12)">
     <defs>
      <path id="DejaVuSans-4c" d="M 628 4666 
L 1259 4666 
L 1259 531 
L 3531 531 
L 3531 0 
L 628 0 
L 628 4666 
z
" transform="scale(0.015625)"/>
      <path id="DejaVuSans-41" d="M 2188 4044 
L 1331 1722 
L 3047 1722 
L 2188 4044 
z
M 1831 4666 
L 2547 4666 
L 4325 0 
L 3669 0 
L 3244 1197 
L 1141 1197 
L 716 0 
L 50 0 
L 1831 4666 
z
" transform="scale(0.015625)"/>
      <path id="DejaVuSans-50" d="M 1259 4147 
L 1259 2394 
L 2053 2394 
Q 2494 2394 2734 2622 
Q 2975 2850 2975 3272 
Q 2975 3691 2734 3919 
Q 2494 4147 2053 4147 
L 1259 4147 
z
M 628 4666 
L 2053 4666 
Q 2838 4666 3239 4311 
Q 3641 3956 3641 3272 
Q 3641 2581 3239 2228 
Q 2838 1875 2053 1875 
L 1259 1875 
L 1259 0 
L 628 0 
L 628 4666 
z
" transform="scale(0.015625)"/>
      <path id="DejaVuSans-61" d="M 2194 1759 
Q 1497 1759 1228 1600 
Q 959 1441 959 1056 
Q 959 750 1161 570 
Q 1363 391 1709 391 
Q 2188 391 2477 730 
Q 2766 1069 2766 1631 
L 2766 1759 
L 2194 1759 
z
M 3341 1997 
L 3341 0 
L 2766 0 
L 2766 531 
Q 2569 213 2275 61 
Q 1981 -91 1556 -91 
Q 1019 -91 701 211 
Q 384 513 384 1019 
Q 384 1609 779 1909 
Q 1175 2209 1959 2209 
L 2766 2209 
L 2766 2266 
Q 2766 2663 2505 2880 
Q 2244 3097 1772 3097 
Q 1472 3097 1187 3025 
Q 903 2953 641 2809 
L 641 3341 
Q 956 3463 1253 3523 
Q 1550 3584 1831 3584 
Q 2591 3584 2966 3190 
Q 3341 2797 3341 1997 
z
" transform="scale(0.015625)"/>
      <path id="DejaVuSans-73" d="M 2834 3397 
L 2834 2853 
Q 2591 2978 2328 3040 
Q 2066 3103 1784 3103 
Q 1356 3103 1142 2972 
Q 928 2841 928 2578 
Q 928 2378 1081 2264 
Q 1234 2150 1697 2047 
L 1894 2003 
Q 2506 1872 2764 1633 
Q 3022 1394 3022 966 
Q 3022 478 2636 193 
Q 2250 -91 1575 -91 
Q 1294 -91 989 -36 
Q 684 19 347 128 
L 347 722 
Q 666 556 975 473 
Q 1284 391 1588 391 
Q 1994 391 2212 530 
Q 2431 669 2431 922 
Q 2431 1156 2273 1281 
Q 2116 1406 1581 1522 
L 1381 1569 
Q 847 1681 609 1914 
Q 372 2147 372 2553 
Q 372 3047 722 3315 
Q 1072 3584 1716 3584 
Q 2034 3584 2315 3537 
Q 2597 3491 2834 3397 
z
" transform="scale(0.015625)"/>
      <path id="DejaVuSans-69" d="M 603 3500 
L 1178 3500 
L 1178 0 
L 603 0 
L 603 3500 
z
M 603 4863 
L 1178 4863 
L 1178 4134 
L 603 4134 
L 603 4863 
z
" transform="scale(0.015625)"/>
      <path id="DejaVuSans-6e" d="M 3513 2113 
L 3513 0 
L 2938 0 
L 2938 2094 
Q 2938 2591 2744 2837 
Q 2550 3084 2163 3084 
Q 1697 3084 1428 2787 
Q 1159 2491 1159 1978 
L 1159 0 
L 581 0 
L 581 3500 
L 1159 3500 
L 1159 2956 
Q 1366 3272 1645 3428 
Q 1925 3584 2291 3584 
Q 2894 3584 3203 3211 
Q 3513 2838 3513 2113 
z
" transform="scale(0.015625)"/>
      <path id="DejaVuSans-67" d="M 2906 1791 
Q 2906 2416 2648 2759 
Q 2391 3103 1925 3103 
Q 1463 3103 1205 2759 
Q 947 2416 947 1791 
Q 947 1169 1205 825 
Q 1463 481 1925 481 
Q 2391 481 2648 825 
Q 2906 1169 2906 1791 
z
M 3481 434 
Q 3481 -459 3084 -895 
Q 2688 -1331 1869 -1331 
Q 1566 -1331 1297 -1286 
Q 1028 -1241 775 -1147 
L 775 -588 
Q 1028 -725 1275 -790 
Q 1522 -856 1778 -856 
Q 2344 -856 2625 -561 
Q 2906 -266 2906 331 
L 2906 616 
Q 2728 306 2450 153 
Q 2172 0 1784 0 
Q 1141 0 747 490 
Q 353 981 353 1791 
Q 353 2603 747 3093 
Q 1141 3584 1784 3584 
Q 2172 3584 2450 3431 
Q 2728 3278 2906 2969 
L 2906 3500 
L 3481 3500 
L 3481 434 
z
" transform="scale(0.015625)"/>
      <path id="DejaVuSans-45" d="M 628 4666 
L 3578 4666 
L 3578 4134 
L 1259 4134 
L 1259 2753 
L 3481 2753 
L 3481 2222 
L 1259 2222 
L 1259 531 
L 3634 531 
L 3634 0 
L 628 0 
L 628 4666 
z
" transform="scale(0.015625)"/>
      <path id="DejaVuSans-70" d="M 1159 525 
L 1159 -1331 
L 581 -1331 
L 581 3500 
L 1159 3500 
L 1159 2969 
Q 1341 3281 1617 3432 
Q 1894 3584 2278 3584 
Q 2916 3584 3314 3078 
Q 3713 2572 3713 1747 
Q 3713 922 3314 415 
Q 2916 -91 2278 -91 
Q 1894 -91 1617 61 
Q 1341 213 1159 525 
z
M 3116 1747 
Q 3116 2381 2855 2742 
Q 2594 3103 2138 3103 
Q 1681 3103 1420 2742 
Q 1159 2381 1159 1747 
Q 1159 1113 1420 752 
Q 1681 391 2138 391 
Q 2594 391 2855 752 
Q 3116 1113 3116 1747 
z
" transform="scale(0.015625)"/>
      <path id="DejaVuSans-65" d="M 3597 1894 
L 3597 1613 
L 953 1613 
Q 991 1019 1311 708 
Q 1631 397 2203 397 
Q 2534 397 2845 478 
Q 3156 559 3463 722 
L 3463 178 
Q 3153 47 2828 -22 
Q 2503 -91 2169 -91 
Q 1331 -91 842 396 
Q 353 884 353 1716 
Q 353 2575 817 3079 
Q 1281 3584 2069 3584 
Q 2775 3584 3186 3129 
Q 3597 2675 3597 1894 
z
M 3022 2063 
Q 3016 2534 2758 2815 
Q 2500 3097 2075 3097 
Q 1594 3097 1305 2825 
Q 1016 2553 972 2059 
L 3022 2063 
z
" transform="scale(0.015625)"/>
      <path id="DejaVuSans-72" d="M 2631 2963 
Q 2534 3019 2420 3045 
Q 2306 3072 2169 3072 
Q 1681 3072 1420 2755 
Q 1159 2438 1159 1844 
L 1159 0 
L 581 0 
L 581 3500 
L 1159 3500 
L 1159 2956 
Q 1341 3275 1631 3429 
Q 1922 3584 2338 3584 
Q 2397 3584 2469 3576 
Q 2541 3569 2628 3553 
L 2631 2963 
z
" transform="scale(0.015625)"/>
      <path id="DejaVuSans-6c" d="M 603 4863 
L 1178 4863 
L 1178 0 
L 603 0 
L 603 4863 
z
" transform="scale(0.015625)"/>
      <path id="DejaVuSans-79" d="M 2059 -325 
Q 1816 -950 1584 -1140 
Q 1353 -1331 966 -1331 
L 506 -1331 
L 506 -850 
L 844 -850 
Q 1081 -850 1212 -737 
Q 1344 -625 1503 -206 
L 1606 56 
L 191 3500 
L 800 3500 
L 1894 763 
L 2988 3500 
L 3597 3500 
L 2059 -325 
z
" transform="scale(0.015625)"/>
     </defs>
     <use xlink:href="#DejaVuSans-4c"/>
     <use xlink:href="#DejaVuSans-41" x="57.962891"/>
     <use xlink:href="#DejaVuSans-20" x="126.371094"/>
     <use xlink:href="#DejaVuSans-50" x="158.158203"/>
     <use xlink:href="#DejaVuSans-61" x="213.960938"/>
     <use xlink:href="#DejaVuSans-73" x="275.240234"/>
     <use xlink:href="#DejaVuSans-73" x="327.339844"/>
     <use xlink:href="#DejaVuSans-69" x="379.439453"/>
     <use xlink:href="#DejaVuSans-6e" x="407.222656"/>
     <use xlink:href="#DejaVuSans-67" x="470.601562"/>
     <use xlink:href="#DejaVuSans-20" x="534.078125"/>
     <use xlink:href="#DejaVuSans-45" x="565.865234"/>
     <use xlink:href="#DejaVuSans-50" x="629.048828"/>
     <use xlink:href="#DejaVuSans-41" x="682.976562"/>
     <use xlink:href="#DejaVuSans-20" x="751.384766"/>
     <use xlink:href="#DejaVuSans-70" x="783.171875"/>
     <use xlink:href="#DejaVuSans-65" x="846.648438"/>
     <use xlink:href="#DejaVuSans-72" x="908.171875"/>
     <use xlink:href="#DejaVuSans-20" x="949.285156"/>
     <use xlink:href="#DejaVuSans-70" x="981.072266"/>
     <use xlink:href="#DejaVuSans-6c" x="1044.548828"/>
     <use xlink:href="#DejaVuSans-61" x="1072.332031"/>
     <use xlink:href="#DejaVuSans-79" x="1133.611328"/>
    </g>
   </g>
   <g id="legend_1">
    <g id="patch_7">
     <path d="M 115.161719 86.594375 
L 327.638281 86.594375 
Q 329.638281 86.594375 329.638281 84.594375 
L 329.638281 41.56 
Q 329.638281 39.56 327.638281 39.56 
L 115.161719 39.56 
Q 113.161719 39.56 113.161719 41.56 
L 113.161719 84.594375 
Q 113.161719 86.594375 115.161719 86.594375 
z
" style="fill: #ffffff; opacity: 0.8; stroke: #cccccc; stroke-linejoin: miter"/>
    </g>
    <g id="line2d_37">
     <path d="M 117.161719 47.658438 
L 127.161719 47.658438 
L 137.161719 47.658438 
" style="fill: none; stroke: #1f77b4; stroke-opacity: 0.5; stroke-linecap: square"/>
    </g>
    <g id="text_32">
     <!-- Passing EPA -->
     <g transform="translate(145.161719 51.158438) scale(0.1 -0.1)">
      <use xlink:href="#DejaVuSans-50"/>
      <use xlink:href="#DejaVuSans-61" x="55.802734"/>
      <use xlink:href="#DejaVuSans-73" x="117.082031"/>
      <use xlink:href="#DejaVuSans-73" x="169.181641"/>
      <use xlink:href="#DejaVuSans-69" x="221.28125"/>
      <use xlink:href="#DejaVuSans-6e" x="249.064453"/>
      <use xlink:href="#DejaVuSans-67" x="312.443359"/>
      <use xlink:href="#DejaVuSans-20" x="375.919922"/>
      <use xlink:href="#DejaVuSans-45" x="407.707031"/>
      <use xlink:href="#DejaVuSans-50" x="470.890625"/>
      <use xlink:href="#DejaVuSans-41" x="524.818359"/>
     </g>
    </g>
    <g id="line2d_38">
     <path d="M 117.161719 62.336563 
L 127.161719 62.336563 
L 137.161719 62.336563 
" style="fill: none; stroke: #ff7f0e; stroke-width: 2; stroke-linecap: square"/>
    </g>
    <g id="text_33">
     <!-- EWMA on EPA with dynamic window -->
     <g transform="translate(145.161719 65.836563) scale(0.1 -0.1)">
      <defs>
       <path id="DejaVuSans-57" d="M 213 4666 
L 850 4666 
L 1831 722 
L 2809 4666 
L 3519 4666 
L 4500 722 
L 5478 4666 
L 6119 4666 
L 4947 0 
L 4153 0 
L 3169 4050 
L 2175 0 
L 1381 0 
L 213 4666 
z
" transform="scale(0.015625)"/>
       <path id="DejaVuSans-4d" d="M 628 4666 
L 1569 4666 
L 2759 1491 
L 3956 4666 
L 4897 4666 
L 4897 0 
L 4281 0 
L 4281 4097 
L 3078 897 
L 2444 897 
L 1241 4097 
L 1241 0 
L 628 0 
L 628 4666 
z
" transform="scale(0.015625)"/>
       <path id="DejaVuSans-6f" d="M 1959 3097 
Q 1497 3097 1228 2736 
Q 959 2375 959 1747 
Q 959 1119 1226 758 
Q 1494 397 1959 397 
Q 2419 397 2687 759 
Q 2956 1122 2956 1747 
Q 2956 2369 2687 2733 
Q 2419 3097 1959 3097 
z
M 1959 3584 
Q 2709 3584 3137 3096 
Q 3566 2609 3566 1747 
Q 3566 888 3137 398 
Q 2709 -91 1959 -91 
Q 1206 -91 779 398 
Q 353 888 353 1747 
Q 353 2609 779 3096 
Q 1206 3584 1959 3584 
z
" transform="scale(0.015625)"/>
       <path id="DejaVuSans-74" d="M 1172 4494 
L 1172 3500 
L 2356 3500 
L 2356 3053 
L 1172 3053 
L 1172 1153 
Q 1172 725 1289 603 
Q 1406 481 1766 481 
L 2356 481 
L 2356 0 
L 1766 0 
Q 1100 0 847 248 
Q 594 497 594 1153 
L 594 3053 
L 172 3053 
L 172 3500 
L 594 3500 
L 594 4494 
L 1172 4494 
z
" transform="scale(0.015625)"/>
       <path id="DejaVuSans-68" d="M 3513 2113 
L 3513 0 
L 2938 0 
L 2938 2094 
Q 2938 2591 2744 2837 
Q 2550 3084 2163 3084 
Q 1697 3084 1428 2787 
Q 1159 2491 1159 1978 
L 1159 0 
L 581 0 
L 581 4863 
L 1159 4863 
L 1159 2956 
Q 1366 3272 1645 3428 
Q 1925 3584 2291 3584 
Q 2894 3584 3203 3211 
Q 3513 2838 3513 2113 
z
" transform="scale(0.015625)"/>
       <path id="DejaVuSans-64" d="M 2906 2969 
L 2906 4863 
L 3481 4863 
L 3481 0 
L 2906 0 
L 2906 525 
Q 2725 213 2448 61 
Q 2172 -91 1784 -91 
Q 1150 -91 751 415 
Q 353 922 353 1747 
Q 353 2572 751 3078 
Q 1150 3584 1784 3584 
Q 2172 3584 2448 3432 
Q 2725 3281 2906 2969 
z
M 947 1747 
Q 947 1113 1208 752 
Q 1469 391 1925 391 
Q 2381 391 2643 752 
Q 2906 1113 2906 1747 
Q 2906 2381 2643 2742 
Q 2381 3103 1925 3103 
Q 1469 3103 1208 2742 
Q 947 2381 947 1747 
z
" transform="scale(0.015625)"/>
       <path id="DejaVuSans-6d" d="M 3328 2828 
Q 3544 3216 3844 3400 
Q 4144 3584 4550 3584 
Q 5097 3584 5394 3201 
Q 5691 2819 5691 2113 
L 5691 0 
L 5113 0 
L 5113 2094 
Q 5113 2597 4934 2840 
Q 4756 3084 4391 3084 
Q 3944 3084 3684 2787 
Q 3425 2491 3425 1978 
L 3425 0 
L 2847 0 
L 2847 2094 
Q 2847 2600 2669 2842 
Q 2491 3084 2119 3084 
Q 1678 3084 1418 2786 
Q 1159 2488 1159 1978 
L 1159 0 
L 581 0 
L 581 3500 
L 1159 3500 
L 1159 2956 
Q 1356 3278 1631 3431 
Q 1906 3584 2284 3584 
Q 2666 3584 2933 3390 
Q 3200 3197 3328 2828 
z
" transform="scale(0.015625)"/>
       <path id="DejaVuSans-63" d="M 3122 3366 
L 3122 2828 
Q 2878 2963 2633 3030 
Q 2388 3097 2138 3097 
Q 1578 3097 1268 2742 
Q 959 2388 959 1747 
Q 959 1106 1268 751 
Q 1578 397 2138 397 
Q 2388 397 2633 464 
Q 2878 531 3122 666 
L 3122 134 
Q 2881 22 2623 -34 
Q 2366 -91 2075 -91 
Q 1284 -91 818 406 
Q 353 903 353 1747 
Q 353 2603 823 3093 
Q 1294 3584 2113 3584 
Q 2378 3584 2631 3529 
Q 2884 3475 3122 3366 
z
" transform="scale(0.015625)"/>
      </defs>
      <use xlink:href="#DejaVuSans-45"/>
      <use xlink:href="#DejaVuSans-57" x="63.183594"/>
      <use xlink:href="#DejaVuSans-4d" x="162.060547"/>
      <use xlink:href="#DejaVuSans-41" x="248.339844"/>
      <use xlink:href="#DejaVuSans-20" x="316.748047"/>
      <use xlink:href="#DejaVuSans-6f" x="348.535156"/>
      <use xlink:href="#DejaVuSans-6e" x="409.716797"/>
      <use xlink:href="#DejaVuSans-20" x="473.095703"/>
      <use xlink:href="#DejaVuSans-45" x="504.882812"/>
      <use xlink:href="#DejaVuSans-50" x="568.066406"/>
      <use xlink:href="#DejaVuSans-41" x="621.994141"/>
      <use xlink:href="#DejaVuSans-20" x="690.402344"/>
      <use xlink:href="#DejaVuSans-77" x="722.189453"/>
      <use xlink:href="#DejaVuSans-69" x="803.976562"/>
      <use xlink:href="#DejaVuSans-74" x="831.759766"/>
      <use xlink:href="#DejaVuSans-68" x="870.96875"/>
      <use xlink:href="#DejaVuSans-20" x="934.347656"/>
      <use xlink:href="#DejaVuSans-64" x="966.134766"/>
      <use xlink:href="#DejaVuSans-79" x="1029.611328"/>
      <use xlink:href="#DejaVuSans-6e" x="1088.791016"/>
      <use xlink:href="#DejaVuSans-61" x="1152.169922"/>
      <use xlink:href="#DejaVuSans-6d" x="1213.449219"/>
      <use xlink:href="#DejaVuSans-69" x="1310.861328"/>
      <use xlink:href="#DejaVuSans-63" x="1338.644531"/>
      <use xlink:href="#DejaVuSans-20" x="1393.625"/>
      <use xlink:href="#DejaVuSans-77" x="1425.412109"/>
      <use xlink:href="#DejaVuSans-69" x="1507.199219"/>
      <use xlink:href="#DejaVuSans-6e" x="1534.982422"/>
      <use xlink:href="#DejaVuSans-64" x="1598.361328"/>
      <use xlink:href="#DejaVuSans-6f" x="1661.837891"/>
      <use xlink:href="#DejaVuSans-77" x="1723.019531"/>
     </g>
    </g>
    <g id="line2d_39">
     <path d="M 117.161719 77.014688 
L 127.161719 77.014688 
L 137.161719 77.014688 
" style="fill: none; stroke: #2ca02c; stroke-width: 2; stroke-linecap: square"/>
    </g>
    <g id="text_34">
     <!-- Static 10 EWMA on EPA -->
     <g transform="translate(145.161719 80.514688) scale(0.1 -0.1)">
      <defs>
       <path id="DejaVuSans-53" d="M 3425 4513 
L 3425 3897 
Q 3066 4069 2747 4153 
Q 2428 4238 2131 4238 
Q 1616 4238 1336 4038 
Q 1056 3838 1056 3469 
Q 1056 3159 1242 3001 
Q 1428 2844 1947 2747 
L 2328 2669 
Q 3034 2534 3370 2195 
Q 3706 1856 3706 1288 
Q 3706 609 3251 259 
Q 2797 -91 1919 -91 
Q 1588 -91 1214 -16 
Q 841 59 441 206 
L 441 856 
Q 825 641 1194 531 
Q 1563 422 1919 422 
Q 2459 422 2753 634 
Q 3047 847 3047 1241 
Q 3047 1584 2836 1778 
Q 2625 1972 2144 2069 
L 1759 2144 
Q 1053 2284 737 2584 
Q 422 2884 422 3419 
Q 422 4038 858 4394 
Q 1294 4750 2059 4750 
Q 2388 4750 2728 4690 
Q 3069 4631 3425 4513 
z
" transform="scale(0.015625)"/>
      </defs>
      <use xlink:href="#DejaVuSans-53"/>
      <use xlink:href="#DejaVuSans-74" x="63.476562"/>
      <use xlink:href="#DejaVuSans-61" x="102.685547"/>
      <use xlink:href="#DejaVuSans-74" x="163.964844"/>
      <use xlink:href="#DejaVuSans-69" x="203.173828"/>
      <use xlink:href="#DejaVuSans-63" x="230.957031"/>
      <use xlink:href="#DejaVuSans-20" x="285.9375"/>
      <use xlink:href="#DejaVuSans-31" x="317.724609"/>
      <use xlink:href="#DejaVuSans-30" x="381.347656"/>
      <use xlink:href="#DejaVuSans-20" x="444.970703"/>
      <use xlink:href="#DejaVuSans-45" x="476.757812"/>
      <use xlink:href="#DejaVuSans-57" x="539.941406"/>
      <use xlink:href="#DejaVuSans-4d" x="638.818359"/>
      <use xlink:href="#DejaVuSans-41" x="725.097656"/>
      <use xlink:href="#DejaVuSans-20" x="793.505859"/>
      <use xlink:href="#DejaVuSans-6f" x="825.292969"/>
      <use xlink:href="#DejaVuSans-6e" x="886.474609"/>
      <use xlink:href="#DejaVuSans-20" x="949.853516"/>
      <use xlink:href="#DejaVuSans-45" x="981.640625"/>
      <use xlink:href="#DejaVuSans-50" x="1044.824219"/>
      <use xlink:href="#DejaVuSans-41" x="1098.751953"/>
     </g>
    </g>
   </g>
  </g>
 </g>
 <defs>
  <clipPath id="pa3c8c595ca">
   <rect x="54" y="34.56" width="334.8" height="217.44"/>
  </clipPath>
 </defs>
</svg>
